<?xml version="1.0" encoding="UTF-8"?>
<!--Generator: Apple Native CoreSVG 149-->
<!DOCTYPE svg
PUBLIC "-//W3C//DTD SVG 1.1//EN"
       "http://www.w3.org/Graphics/SVG/1.1/DTD/svg11.dtd">
<svg version="1.1" xmlns="http://www.w3.org/2000/svg" xmlns:xlink="http://www.w3.org/1999/xlink" width="3300" height="2200">
 <!--glyph: "uni100246.medium", point size: 100.000000, font version: "Version 16.0d18e1", template writer version: "8"-->
 <g id="Notes">
  <rect height="2200" id="artboard" style="fill:white;opacity:1" width="3300" x="0" y="0"/>
  <line id="" style="fill:none;stroke:black;opacity:1;stroke-width:0.5;" x1="263" x2="3036" y1="292" y2="292"/>
  <text style="stroke:none;fill:black;font-family:-apple-system,&quot;SF Pro Display&quot;,&quot;SF Pro Text&quot;,Helvetica,sans-serif;font-weight:bold;" transform="matrix(1 0 0 1 263 322)">Weight/Scale Variations</text>
  <text style="stroke:none;fill:black;font-family:-apple-system,&quot;SF Pro Display&quot;,&quot;SF Pro Text&quot;,Helvetica,sans-serif;text-anchor:middle;" transform="matrix(1 0 0 1 559.711 322)">Ultralight</text>
  <text style="stroke:none;fill:black;font-family:-apple-system,&quot;SF Pro Display&quot;,&quot;SF Pro Text&quot;,Helvetica,sans-serif;text-anchor:middle;" transform="matrix(1 0 0 1 856.422 322)">Thin</text>
  <text style="stroke:none;fill:black;font-family:-apple-system,&quot;SF Pro Display&quot;,&quot;SF Pro Text&quot;,Helvetica,sans-serif;text-anchor:middle;" transform="matrix(1 0 0 1 1153.13 322)">Light</text>
  <text style="stroke:none;fill:black;font-family:-apple-system,&quot;SF Pro Display&quot;,&quot;SF Pro Text&quot;,Helvetica,sans-serif;text-anchor:middle;" transform="matrix(1 0 0 1 1449.84 322)">Regular</text>
  <text style="stroke:none;fill:black;font-family:-apple-system,&quot;SF Pro Display&quot;,&quot;SF Pro Text&quot;,Helvetica,sans-serif;text-anchor:middle;" transform="matrix(1 0 0 1 1746.56 322)">Medium</text>
  <text style="stroke:none;fill:black;font-family:-apple-system,&quot;SF Pro Display&quot;,&quot;SF Pro Text&quot;,Helvetica,sans-serif;text-anchor:middle;" transform="matrix(1 0 0 1 2043.27 322)">Semibold</text>
  <text style="stroke:none;fill:black;font-family:-apple-system,&quot;SF Pro Display&quot;,&quot;SF Pro Text&quot;,Helvetica,sans-serif;text-anchor:middle;" transform="matrix(1 0 0 1 2339.98 322)">Bold</text>
  <text style="stroke:none;fill:black;font-family:-apple-system,&quot;SF Pro Display&quot;,&quot;SF Pro Text&quot;,Helvetica,sans-serif;text-anchor:middle;" transform="matrix(1 0 0 1 2636.69 322)">Heavy</text>
  <text style="stroke:none;fill:black;font-family:-apple-system,&quot;SF Pro Display&quot;,&quot;SF Pro Text&quot;,Helvetica,sans-serif;text-anchor:middle;" transform="matrix(1 0 0 1 2933.4 322)">Black</text>
  <line id="" style="fill:none;stroke:black;opacity:1;stroke-width:0.5;" x1="263" x2="3036" y1="1903" y2="1903"/>
  <g id="" transform="matrix(1 0 0 1 263 1933)">
   <path d="M9.24805 0.830078C13.5547 0.830078 17.1387-2.74414 17.1387-7.05078C17.1387-11.3574 13.5449-14.9316 9.23828-14.9316C4.94141-14.9316 1.36719-11.3574 1.36719-7.05078C1.36719-2.74414 4.95117 0.830078 9.24805 0.830078ZM9.24805-0.654297C5.70312-0.654297 2.87109-3.49609 2.87109-7.05078C2.87109-10.6055 5.69336-13.4473 9.23828-13.4473C12.793-13.4473 15.6348-10.6055 15.6445-7.05078C15.6543-3.49609 12.8027-0.654297 9.24805-0.654297ZM6.39648-6.31836L8.50586-6.31836L8.50586-4.19922C8.50586-3.75977 8.79883-3.45703 9.22852-3.45703C9.67773-3.45703 9.9707-3.75977 9.9707-4.19922L9.9707-6.31836L12.0996-6.31836C12.5391-6.31836 12.8418-6.61133 12.8418-7.04102C12.8418-7.48047 12.5391-7.7832 12.0996-7.7832L9.9707-7.7832L9.9707-9.89258C9.9707-10.3418 9.67773-10.6445 9.22852-10.6445C8.79883-10.6445 8.50586-10.3418 8.50586-9.89258L8.50586-7.7832L6.39648-7.7832C5.94727-7.7832 5.64453-7.48047 5.64453-7.04102C5.64453-6.61133 5.94727-6.31836 6.39648-6.31836Z"/>
  </g>
  <g id="" transform="matrix(1 0 0 1 281.506 1933)">
   <path d="M11.709 2.91016C17.1582 2.91016 21.6699-1.61133 21.6699-7.05078C21.6699-12.5 17.1484-17.0117 11.6992-17.0117C6.25977-17.0117 1.74805-12.5 1.74805-7.05078C1.74805-1.61133 6.26953 2.91016 11.709 2.91016ZM11.709 1.25C7.09961 1.25 3.41797-2.44141 3.41797-7.05078C3.41797-11.6602 7.08984-15.3516 11.6992-15.3516C16.3086-15.3516 20-11.6602 20.0098-7.05078C20.0195-2.44141 16.3184 1.25 11.709 1.25ZM7.98828-6.23047L10.8789-6.23047L10.8789-3.32031C10.8789-2.83203 11.2109-2.5 11.6895-2.5C12.1777-2.5 12.5195-2.83203 12.5195-3.32031L12.5195-6.23047L15.4297-6.23047C15.918-6.23047 16.25-6.5625 16.25-7.04102C16.25-7.5293 15.918-7.87109 15.4297-7.87109L12.5195-7.87109L12.5195-10.7617C12.5195-11.2695 12.1777-11.6016 11.6895-11.6016C11.2109-11.6016 10.8789-11.2598 10.8789-10.7617L10.8789-7.87109L7.98828-7.87109C7.48047-7.87109 7.14844-7.5293 7.14844-7.04102C7.14844-6.5625 7.49023-6.23047 7.98828-6.23047Z"/>
  </g>
  <g id="" transform="matrix(1 0 0 1 304.924 1933)">
   <path d="M14.9707 5.66406C21.9336 5.66406 27.6953-0.0976562 27.6953-7.05078C27.6953-14.0137 21.9238-19.7754 14.9609-19.7754C8.00781-19.7754 2.25586-14.0137 2.25586-7.05078C2.25586-0.0976562 8.01758 5.66406 14.9707 5.66406ZM14.9707 3.84766C8.93555 3.84766 4.08203-1.01562 4.08203-7.05078C4.08203-13.0957 8.92578-17.9492 14.9609-17.9492C21.0059-17.9492 25.8594-13.0957 25.8691-7.05078C25.8789-1.01562 21.0156 3.84766 14.9707 3.84766ZM10.0586-6.14258L14.0625-6.14258L14.0625-2.12891C14.0625-1.5918 14.4336-1.2207 14.9512-1.2207C15.4883-1.2207 15.8594-1.5918 15.8594-2.12891L15.8594-6.14258L19.8828-6.14258C20.4102-6.14258 20.791-6.51367 20.791-7.03125C20.791-7.56836 20.4199-7.94922 19.8828-7.94922L15.8594-7.94922L15.8594-11.9531C15.8594-12.5098 15.4883-12.8809 14.9512-12.8809C14.4336-12.8809 14.0625-12.5 14.0625-11.9531L14.0625-7.94922L10.0586-7.94922C9.50195-7.94922 9.13086-7.56836 9.13086-7.03125C9.13086-6.51367 9.51172-6.14258 10.0586-6.14258Z"/>
  </g>
  <text style="stroke:none;fill:black;font-family:-apple-system,&quot;SF Pro Display&quot;,&quot;SF Pro Text&quot;,Helvetica,sans-serif;font-weight:bold;" transform="matrix(1 0 0 1 263 1953)">Design Variations</text>
  <text style="stroke:none;fill:black;font-family:-apple-system,&quot;SF Pro Display&quot;,&quot;SF Pro Text&quot;,Helvetica,sans-serif;" transform="matrix(1 0 0 1 263 1971)">Symbols are supported in up to nine weights and three scales.</text>
  <text style="stroke:none;fill:black;font-family:-apple-system,&quot;SF Pro Display&quot;,&quot;SF Pro Text&quot;,Helvetica,sans-serif;" transform="matrix(1 0 0 1 263 1989)">For optimal layout with text and other symbols, vertically align</text>
  <text style="stroke:none;fill:black;font-family:-apple-system,&quot;SF Pro Display&quot;,&quot;SF Pro Text&quot;,Helvetica,sans-serif;" transform="matrix(1 0 0 1 263 2007)">symbols with the adjacent text.</text>
  <line id="" style="fill:none;stroke:#00AEEF;stroke-width:0.5;opacity:1.0;" x1="776" x2="776" y1="1919" y2="1933"/>
  <g id="" transform="matrix(1 0 0 1 776 1933)">
   <path d="M3.31055 0.126953C3.82812 0.126953 4.08203-0.0683594 4.26758-0.605469L5.52734-4.0625L11.2891-4.0625L12.5488-0.605469C12.7344-0.0683594 12.9883 0.126953 13.4961 0.126953C14.0137 0.126953 14.3457-0.185547 14.3457-0.673828C14.3457-0.839844 14.3164-0.986328 14.2383-1.20117L9.6582-13.3887C9.43359-13.9941 9.0332-14.2871 8.4082-14.2871C7.80273-14.2871 7.39258-13.9941 7.17773-13.3984L2.59766-1.19141C2.51953-0.976562 2.49023-0.830078 2.49023-0.664062C2.49023-0.175781 2.80273 0.126953 3.31055 0.126953ZM6.00586-5.53711L8.37891-12.1094L8.42773-12.1094L10.8008-5.53711Z"/>
  </g>
  <line id="" style="fill:none;stroke:#00AEEF;stroke-width:0.5;opacity:1.0;" x1="792.836" x2="792.836" y1="1919" y2="1933"/>
  <text style="stroke:none;fill:black;font-family:-apple-system,&quot;SF Pro Display&quot;,&quot;SF Pro Text&quot;,Helvetica,sans-serif;font-weight:bold;" transform="matrix(1 0 0 1 776 1953)">Margins</text>
  <text style="stroke:none;fill:black;font-family:-apple-system,&quot;SF Pro Display&quot;,&quot;SF Pro Text&quot;,Helvetica,sans-serif;" transform="matrix(1 0 0 1 776 1971)">Leading and trailing margins on the left and right side of each symbol</text>
  <text style="stroke:none;fill:black;font-family:-apple-system,&quot;SF Pro Display&quot;,&quot;SF Pro Text&quot;,Helvetica,sans-serif;" transform="matrix(1 0 0 1 776 1989)">can be adjusted by modifying the x-location of the margin guidelines.</text>
  <text style="stroke:none;fill:black;font-family:-apple-system,&quot;SF Pro Display&quot;,&quot;SF Pro Text&quot;,Helvetica,sans-serif;" transform="matrix(1 0 0 1 776 2007)">Modifications are automatically applied proportionally to all</text>
  <text style="stroke:none;fill:black;font-family:-apple-system,&quot;SF Pro Display&quot;,&quot;SF Pro Text&quot;,Helvetica,sans-serif;" transform="matrix(1 0 0 1 776 2025)">scales and weights.</text>
  <g id="" transform="matrix(1 0 0 1 1289 1933)">
   <path d="M2.8418 1.86523L4.54102 3.57422C5.40039 4.44336 6.38672 4.38477 7.31445 3.35938L17.4902-7.85156C17.7539-7.76367 18.0273-7.7832 18.3398-7.8418L19.4043-8.03711L20.0684-7.36328L20.0293-6.80664C19.9902-6.30859 20.1172-5.92773 20.6055-5.44922L21.3672-4.70703C21.8457-4.22852 22.4609-4.19922 22.9297-4.66797L25.8398-7.58789C26.3086-8.05664 26.2891-8.65234 25.8105-9.13086L25.0391-9.89258C24.5605-10.3711 24.1895-10.5273 23.7109-10.4883L23.1348-10.4395L22.4902-11.0742L22.7344-12.1973C22.8613-12.7637 22.7051-13.2031 22.1191-13.7891L19.9219-15.9766C16.582-19.2969 12.1484-19.2188 9.25781-16.3281C8.83789-15.918 8.80859-15.3418 9.04297-14.9512C9.27734-14.5898 9.73633-14.3555 10.3809-14.5215C11.8457-14.8633 13.3691-14.9219 14.7949-13.9844L14.209-12.5293C14.0137-12.0508 13.9844-11.6504 14.1113-11.2891L3.04688-0.898438C2.06055 0.0195312 1.98242 0.996094 2.8418 1.86523ZM10.752-15.957C13.1836-17.7344 16.4746-17.4316 18.7012-15.2051L21.1328-12.793C21.3672-12.5586 21.4062-12.373 21.3379-12.0312L21.0156-10.5469L22.5195-9.0625L23.5059-9.12109C23.7598-9.13086 23.8379-9.11133 24.0332-8.91602L24.6094-8.33984L22.168-5.89844L21.5918-6.47461C21.3965-6.66992 21.3672-6.74805 21.377-7.01172L21.4453-7.98828L19.9512-9.47266L18.4277-9.21875C18.1055-9.15039 17.959-9.17969 17.7148-9.41406L15.7129-11.416C15.459-11.6504 15.4297-11.8164 15.5859-12.1875L16.4648-14.2773C14.9023-15.7324 12.8711-16.3574 10.8398-15.7617C10.6836-15.7227 10.625-15.8496 10.752-15.957ZM5.27344 2.30469L4.10156 1.14258C3.63281 0.683594 3.74023 0.341797 4.14062-0.0195312L14.9512-10.1953L16.416-8.71094L6.42578 2.27539C6.07422 2.67578 5.74219 2.77344 5.27344 2.30469Z"/>
  </g>
  <text style="stroke:none;fill:black;font-family:-apple-system,&quot;SF Pro Display&quot;,&quot;SF Pro Text&quot;,Helvetica,sans-serif;font-weight:bold;" transform="matrix(1 0 0 1 1289 1953)">Exporting</text>
  <text style="stroke:none;fill:black;font-family:-apple-system,&quot;SF Pro Display&quot;,&quot;SF Pro Text&quot;,Helvetica,sans-serif;" transform="matrix(1 0 0 1 1289 1971)">Symbols should be outlined when exporting to ensure the</text>
  <text style="stroke:none;fill:black;font-family:-apple-system,&quot;SF Pro Display&quot;,&quot;SF Pro Text&quot;,Helvetica,sans-serif;" transform="matrix(1 0 0 1 1289 1989)">design is preserved when submitting to Xcode.</text>
  <text id="template-version" style="stroke:none;fill:black;font-family:-apple-system,&quot;SF Pro Display&quot;,&quot;SF Pro Text&quot;,Helvetica,sans-serif;text-anchor:end;" transform="matrix(1 0 0 1 3036 1933)">Template v.2.0</text>
  <text style="stroke:none;fill:black;font-family:-apple-system,&quot;SF Pro Display&quot;,&quot;SF Pro Text&quot;,Helvetica,sans-serif;text-anchor:end;" transform="matrix(1 0 0 1 3036 1951)">Requires Xcode 12 or greater</text>
  <text style="stroke:none;fill:black;font-family:-apple-system,&quot;SF Pro Display&quot;,&quot;SF Pro Text&quot;,Helvetica,sans-serif;text-anchor:end;" transform="matrix(1 0 0 1 3036 1969)">Generated from doc.plaintext</text>
  <text style="stroke:none;fill:black;font-family:-apple-system,&quot;SF Pro Display&quot;,&quot;SF Pro Text&quot;,Helvetica,sans-serif;text-anchor:end;" transform="matrix(1 0 0 1 3036 1987)">Typeset at 100 points</text>
  <text style="stroke:none;fill:black;font-family:-apple-system,&quot;SF Pro Display&quot;,&quot;SF Pro Text&quot;,Helvetica,sans-serif;" transform="matrix(1 0 0 1 263 726)">Small</text>
  <text style="stroke:none;fill:black;font-family:-apple-system,&quot;SF Pro Display&quot;,&quot;SF Pro Text&quot;,Helvetica,sans-serif;" transform="matrix(1 0 0 1 263 1156)">Medium</text>
  <text style="stroke:none;fill:black;font-family:-apple-system,&quot;SF Pro Display&quot;,&quot;SF Pro Text&quot;,Helvetica,sans-serif;" transform="matrix(1 0 0 1 263 1586)">Large</text>
 </g>
 <g id="Guides">
  <g id="H-reference" style="fill:#27AAE1;stroke:none;" transform="matrix(1 0 0 1 339 696)">
   <path d="M0.976562 0L3.66211 0L12.9883-24.4629L45.752-24.4629L55.127 0L57.7637 0L30.6152-70.459L28.125-70.459ZM29.3457-67.1387L29.4434-67.1387L44.873-26.709L13.8672-26.709Z"/>
  </g>
  <line id="Baseline-S" style="fill:none;stroke:#27AAE1;opacity:1;stroke-width:0.5;" x1="263" x2="3036" y1="696" y2="696"/>
  <line id="Capline-S" style="fill:none;stroke:#27AAE1;opacity:1;stroke-width:0.5;" x1="263" x2="3036" y1="625.541" y2="625.541"/>
  <g id="H-reference" style="fill:#27AAE1;stroke:none;" transform="matrix(1 0 0 1 339 1126)">
   <path d="M0.976562 0L3.66211 0L12.9883-24.4629L45.752-24.4629L55.127 0L57.7637 0L30.6152-70.459L28.125-70.459ZM29.3457-67.1387L29.4434-67.1387L44.873-26.709L13.8672-26.709Z"/>
  </g>
  <line id="Baseline-M" style="fill:none;stroke:#27AAE1;opacity:1;stroke-width:0.5;" x1="263" x2="3036" y1="1126" y2="1126"/>
  <line id="Capline-M" style="fill:none;stroke:#27AAE1;opacity:1;stroke-width:0.5;" x1="263" x2="3036" y1="1055.54" y2="1055.54"/>
  <g id="H-reference" style="fill:#27AAE1;stroke:none;" transform="matrix(1 0 0 1 339 1556)">
   <path d="M0.976562 0L3.66211 0L12.9883-24.4629L45.752-24.4629L55.127 0L57.7637 0L30.6152-70.459L28.125-70.459ZM29.3457-67.1387L29.4434-67.1387L44.873-26.709L13.8672-26.709Z"/>
  </g>
  <line id="Baseline-L" style="fill:none;stroke:#27AAE1;opacity:1;stroke-width:0.5;" x1="263" x2="3036" y1="1556" y2="1556"/>
  <line id="Capline-L" style="fill:none;stroke:#27AAE1;opacity:1;stroke-width:0.5;" x1="263" x2="3036" y1="1485.54" y2="1485.54"/>
  <line id="left-margin" style="fill:none;stroke:#00AEEF;stroke-width:0.5;opacity:1.0;" x1="1396.33" x2="1396.33" y1="1030.79" y2="1150.12"/>
  <line id="right-margin" style="fill:none;stroke:#00AEEF;stroke-width:0.5;opacity:1.0;" x1="1503.36" x2="1503.36" y1="1030.79" y2="1150.12"/>
 </g>
 <g id="Symbols">
  <g id="Black-L" transform="matrix(1 0 0 1 2859.65 1556)">
   <path d="M16.0645 11.3281C16.0645 26.5625 24.707 35.2539 39.8926 35.2539L107.617 35.2539C122.803 35.2539 131.445 26.5625 131.445 11.3281L131.445-81.7383C131.445-96.9727 122.803-105.664 107.617-105.664L39.8926-105.664C24.707-105.664 16.0645-96.9727 16.0645-81.7383ZM36.3281 8.59375L36.3281-79.0039C36.3281-83.252 38.1836-85.4004 42.7246-85.4004L104.785-85.4004C109.326-85.4004 111.23-83.252 111.23-79.0039L111.23 8.59375C111.23 12.8418 109.326 14.9902 104.785 14.9902L42.7246 14.9902C38.1836 14.9902 36.3281 12.8418 36.3281 8.59375ZM53.7109-60.8398L93.9453-60.8398C96.5332-60.8398 98.4375-62.8418 98.4375-65.3809C98.4375-67.9199 96.5332-69.8242 93.9453-69.8242L53.7109-69.8242C51.0742-69.8242 49.1211-67.9199 49.1211-65.3809C49.1211-62.8418 51.0742-60.8398 53.7109-60.8398ZM53.7109-40.8203L93.9453-40.8203C96.5332-40.8203 98.4375-42.8223 98.4375-45.4102C98.4375-47.9004 96.5332-49.8047 93.9453-49.8047L53.7109-49.8047C51.0742-49.8047 49.1211-47.9004 49.1211-45.4102C49.1211-42.8223 51.0742-40.8203 53.7109-40.8203ZM53.7109-20.8008L74.707-20.8008C77.2949-20.8008 79.1992-22.7539 79.1992-25.2441C79.1992-27.7832 77.2949-29.834 74.707-29.834L53.7109-29.834C51.0742-29.834 49.1211-27.7832 49.1211-25.2441C49.1211-22.7539 51.0742-20.8008 53.7109-20.8008Z"/>
  </g>
  <g id="Heavy-L" transform="matrix(1 0 0 1 2564.18 1556)">
   <path d="M16.0645 11.7188C16.0645 26.3672 24.1211 34.4727 38.7207 34.4727L106.348 34.4727C120.898 34.4727 128.955 26.3672 128.955 11.7188L128.955-82.1777C128.955-96.7773 120.898-104.932 106.348-104.932L38.7207-104.932C24.1211-104.932 16.0645-96.7773 16.0645-82.1777ZM33.5938 9.61914L33.5938-80.0293C33.5938-84.8633 35.8887-87.4023 41.0156-87.4023L104.053-87.4023C109.18-87.4023 111.475-84.8633 111.475-80.0293L111.475 9.61914C111.475 14.4531 109.18 16.9922 104.053 16.9922L41.0156 16.9922C35.8887 16.9922 33.5938 14.4531 33.5938 9.61914ZM51.4648-62.4512L93.7012-62.4512C96.1426-62.4512 97.9492-64.3555 97.9492-66.748C97.9492-69.0918 96.1426-70.9473 93.7012-70.9473L51.4648-70.9473C48.9746-70.9473 47.1191-69.0918 47.1191-66.748C47.1191-64.3555 48.9746-62.4512 51.4648-62.4512ZM51.4648-41.9434L93.7012-41.9434C96.1426-41.9434 97.9492-43.8477 97.9492-46.2891C97.9492-48.6328 96.1426-50.4395 93.7012-50.4395L51.4648-50.4395C48.9746-50.4395 47.1191-48.6328 47.1191-46.2891C47.1191-43.8477 48.9746-41.9434 51.4648-41.9434ZM51.4648-21.4844L72.998-21.4844C75.4395-21.4844 77.2461-23.291 77.2461-25.6348C77.2461-28.0762 75.4395-29.9316 72.998-29.9316L51.4648-29.9316C48.9746-29.9316 47.1191-28.0762 47.1191-25.6348C47.1191-23.291 48.9746-21.4844 51.4648-21.4844Z"/>
  </g>
  <g id="Bold-L" transform="matrix(1 0 0 1 2268.86 1556)">
   <path d="M16.0645 12.207C16.0645 26.123 23.5352 33.6426 37.4023 33.6426L104.883 33.6426C118.701 33.6426 126.172 26.123 126.172 12.207L126.172-82.6172C126.172-96.5332 118.701-104.053 104.883-104.053L37.4023-104.053C23.5352-104.053 16.0645-96.5332 16.0645-82.6172ZM30.5176 10.7422L30.5176-81.1523C30.5176-86.6699 33.252-89.6484 39.0625-89.6484L103.223-89.6484C108.984-89.6484 111.719-86.6699 111.719-81.1523L111.719 10.7422C111.719 16.2598 108.984 19.1895 103.223 19.1895L39.0625 19.1895C33.252 19.1895 30.5176 16.2598 30.5176 10.7422ZM48.9258-64.2578L93.457-64.2578C95.7031-64.2578 97.4121-66.0156 97.4121-68.2617C97.4121-70.459 95.7031-72.168 93.457-72.168L48.9258-72.168C46.582-72.168 44.873-70.459 44.873-68.2617C44.873-66.0156 46.582-64.2578 48.9258-64.2578ZM48.9258-43.2617L93.457-43.2617C95.7031-43.2617 97.4121-45.0195 97.4121-47.2656C97.4121-49.4141 95.7031-51.123 93.457-51.123L48.9258-51.123C46.582-51.123 44.873-49.4141 44.873-47.2656C44.873-45.0195 46.582-43.2617 48.9258-43.2617ZM48.9258-22.2168L71.0938-22.2168C73.3887-22.2168 75.0977-23.9258 75.0977-26.0742C75.0977-28.3203 73.3887-30.0781 71.0938-30.0781L48.9258-30.0781C46.582-30.0781 44.873-28.3203 44.873-26.0742C44.873-23.9258 46.582-22.2168 48.9258-22.2168Z"/>
  </g>
  <g id="Semibold-L" transform="matrix(1 0 0 1 1973.1 1556)">
   <path d="M16.0645 12.5C16.0645 25.9766 23.0957 33.0566 36.4746 33.0566L103.857 33.0566C117.188 33.0566 124.268 25.9766 124.268 12.5L124.268-82.9102C124.268-96.3867 117.188-103.516 103.857-103.516L36.4746-103.516C23.0957-103.516 16.0645-96.3867 16.0645-82.9102ZM28.418 11.5234L28.418-81.9336C28.418-87.9395 31.4453-91.1621 37.6953-91.1621L102.637-91.1621C108.838-91.1621 111.914-87.9395 111.914-81.9336L111.914 11.5234C111.914 17.5293 108.838 20.752 102.637 20.752L37.6953 20.752C31.4453 20.752 28.418 17.5293 28.418 11.5234ZM47.168-65.5273L93.2617-65.5273C95.4102-65.5273 97.0215-67.1875 97.0215-69.3359C97.0215-71.3867 95.4102-72.998 93.2617-72.998L47.168-72.998C44.9707-72.998 43.3594-71.3867 43.3594-69.3359C43.3594-67.1875 44.9707-65.5273 47.168-65.5273ZM47.168-44.1406L93.2617-44.1406C95.4102-44.1406 97.0215-45.8008 97.0215-47.9492C97.0215-50 95.4102-51.6113 93.2617-51.6113L47.168-51.6113C44.9707-51.6113 43.3594-50 43.3594-47.9492C43.3594-45.8008 44.9707-44.1406 47.168-44.1406ZM47.168-22.7051L69.8242-22.7051C71.9727-22.7051 73.584-24.3164 73.584-26.416C73.584-28.5156 71.9727-30.2246 69.8242-30.2246L47.168-30.2246C44.9707-30.2246 43.3594-28.5156 43.3594-26.416C43.3594-24.3164 44.9707-22.7051 47.168-22.7051Z"/>
  </g>
  <g id="Medium-L" transform="matrix(1 0 0 1 1677.12 1556)">
   <path d="M16.0645 12.7441C16.0645 25.8789 22.8027 32.666 35.791 32.666L103.076 32.666C116.064 32.666 122.803 25.8789 122.803 12.7441L122.803-83.1543C122.803-96.2402 116.064-103.076 103.076-103.076L35.791-103.076C22.8027-103.076 16.0645-96.2402 16.0645-83.1543ZM26.8066 12.1094L26.8066-82.5684C26.8066-88.8672 30.127-92.334 36.6699-92.334L102.197-92.334C108.74-92.334 112.061-88.8672 112.061-82.5684L112.061 12.1094C112.061 18.457 108.74 21.9238 102.197 21.9238L36.6699 21.9238C30.127 21.9238 26.8066 18.457 26.8066 12.1094ZM45.8496-66.5039L93.1641-66.5039C95.2148-66.5039 96.7773-68.0664 96.7773-70.1172C96.7773-72.1191 95.2148-73.6816 93.1641-73.6816L45.8496-73.6816C43.7012-73.6816 42.1875-72.1191 42.1875-70.1172C42.1875-68.0664 43.7012-66.5039 45.8496-66.5039ZM45.8496-44.7754L93.1641-44.7754C95.2148-44.7754 96.7773-46.3867 96.7773-48.4375C96.7773-50.4395 95.2148-51.9531 93.1641-51.9531L45.8496-51.9531C43.7012-51.9531 42.1875-50.4395 42.1875-48.4375C42.1875-46.3867 43.7012-44.7754 45.8496-44.7754ZM45.8496-23.0957L68.7988-23.0957C70.8984-23.0957 72.4121-24.6582 72.4121-26.6602C72.4121-28.6621 70.8984-30.2734 68.7988-30.2734L45.8496-30.2734C43.7012-30.2734 42.1875-28.6621 42.1875-26.6602C42.1875-24.6582 43.7012-23.0957 45.8496-23.0957Z"/>
  </g>
  <g id="Regular-L" transform="matrix(1 0 0 1 1381.36 1556)">
   <path d="M16.0645 13.0859C16.0645 25.6836 22.3633 32.0801 34.8633 32.0801L102.1 32.0801C114.6 32.0801 120.898 25.6836 120.898 13.0859L120.898-83.4961C120.898-96.0938 114.6-102.49 102.1-102.49L34.8633-102.49C22.3633-102.49 16.0645-96.0938 16.0645-83.4961ZM24.707 12.8906L24.707-83.3008C24.707-90.1367 28.3203-93.8477 35.3516-93.8477L101.611-93.8477C108.643-93.8477 112.256-90.1367 112.256-83.3008L112.256 12.8906C112.256 19.7266 108.643 23.4375 101.611 23.4375L35.3516 23.4375C28.3203 23.4375 24.707 19.7266 24.707 12.8906ZM44.0918-67.7246L92.9688-67.7246C94.9219-67.7246 96.3867-69.2383 96.3867-71.1914C96.3867-73.0469 94.9219-74.5117 92.9688-74.5117L44.0918-74.5117C42.0898-74.5117 40.625-73.0469 40.625-71.1914C40.625-69.2383 42.0898-67.7246 44.0918-67.7246ZM44.0918-45.6543L92.9688-45.6543C94.9219-45.6543 96.3867-47.168 96.3867-49.1211C96.3867-50.9766 94.9219-52.4414 92.9688-52.4414L44.0918-52.4414C42.0898-52.4414 40.625-50.9766 40.625-49.1211C40.625-47.168 42.0898-45.6543 44.0918-45.6543ZM44.0918-23.6328L67.5293-23.6328C69.4824-23.6328 70.9473-25.0977 70.9473-26.9531C70.9473-28.8574 69.4824-30.3711 67.5293-30.3711L44.0918-30.3711C42.0898-30.3711 40.625-28.8574 40.625-26.9531C40.625-25.0977 42.0898-23.6328 44.0918-23.6328Z"/>
  </g>
  <g id="Light-L" transform="matrix(1 0 0 1 1085.43 1556)">
   <path d="M16.0645 13.7695C16.0645 25.6836 22.1191 31.7871 33.9355 31.7871L101.514 31.7871C113.281 31.7871 119.336 25.6836 119.336 13.7695L119.336-84.1309C119.336-95.9961 113.281-102.1 101.514-102.1L33.9355-102.1C22.1191-102.1 16.0645-95.9961 16.0645-84.1309ZM22.7051 13.623L22.7051-83.9844C22.7051-91.4551 26.6113-95.5078 34.2773-95.5078L101.172-95.5078C108.789-95.5078 112.744-91.4551 112.744-83.9844L112.744 13.623C112.744 21.1426 108.789 25.1465 101.172 25.1465L34.2773 25.1465C26.6113 25.1465 22.7051 21.1426 22.7051 13.623ZM42.5781-69.7266L92.9199-69.7266C94.4824-69.7266 95.7031-70.9473 95.7031-72.4609C95.7031-73.9746 94.4824-75.1465 92.9199-75.1465L42.5781-75.1465C40.9668-75.1465 39.7949-73.9746 39.7949-72.4609C39.7949-70.9473 40.9668-69.7266 42.5781-69.7266ZM42.5781-47.5586L92.9199-47.5586C94.4824-47.5586 95.7031-48.7793 95.7031-50.293C95.7031-51.8066 94.4824-52.9785 92.9199-52.9785L42.5781-52.9785C40.9668-52.9785 39.7949-51.8066 39.7949-50.293C39.7949-48.7793 40.9668-47.5586 42.5781-47.5586ZM42.5781-25.3906L67.041-25.3906C68.6523-25.3906 69.8242-26.5625 69.8242-28.0762C69.8242-29.5898 68.6523-30.8105 67.041-30.8105L42.5781-30.8105C40.9668-30.8105 39.7949-29.5898 39.7949-28.0762C39.7949-26.5625 40.9668-25.3906 42.5781-25.3906Z"/>
  </g>
  <g id="Thin-L" transform="matrix(1 0 0 1 789.747 1556)">
   <path d="M16.0645 14.7461C16.0645 25.6348 21.7773 31.3477 32.666 31.3477L100.732 31.3477C111.572 31.3477 117.285 25.6348 117.285 14.7461L117.285-84.9609C117.285-95.8496 111.572-101.611 100.732-101.611L32.666-101.611C21.7773-101.611 16.0645-95.8496 16.0645-84.9609ZM19.9707 14.5996L19.9707-84.8145C19.9707-93.2617 24.3652-97.6562 32.8613-97.6562L100.537-97.6562C108.984-97.6562 113.379-93.2617 113.379-84.8145L113.379 14.5996C113.379 22.998 108.984 27.4414 100.537 27.4414L32.8613 27.4414C24.3652 27.4414 19.9707 22.998 19.9707 14.5996ZM40.5762-72.3633L92.8223-72.3633C93.9453-72.3633 94.7754-73.1934 94.7754-74.2188C94.7754-75.2441 93.9453-76.0742 92.8223-76.0742L40.5762-76.0742C39.502-76.0742 38.6719-75.2441 38.6719-74.2188C38.6719-73.1934 39.502-72.3633 40.5762-72.3633ZM40.5762-50.0488L92.8223-50.0488C93.9453-50.0488 94.7754-50.8789 94.7754-51.9043C94.7754-52.9297 93.9453-53.7109 92.8223-53.7109L40.5762-53.7109C39.502-53.7109 38.6719-52.9297 38.6719-51.9043C38.6719-50.8789 39.502-50.0488 40.5762-50.0488ZM40.5762-27.7344L66.4551-27.7344C67.5293-27.7344 68.3594-28.5645 68.3594-29.5898C68.3594-30.5664 67.5293-31.3965 66.4551-31.3965L40.5762-31.3965C39.502-31.3965 38.6719-30.5664 38.6719-29.5898C38.6719-28.5645 39.502-27.7344 40.5762-27.7344Z"/>
  </g>
  <g id="Ultralight-L" transform="matrix(1 0 0 1 493.549 1556)">
   <path d="M16.0645 15.2344C16.0645 25.5859 21.6309 31.1523 31.9824 31.1523L100.293 31.1523C110.693 31.1523 116.26 25.5859 116.26 15.2344L116.26-85.4004C116.26-95.8008 110.693-101.318 100.293-101.318L31.9824-101.318C21.6309-101.318 16.0645-95.8008 16.0645-85.4004ZM18.6035 15.0879L18.6035-85.2539C18.6035-94.1895 23.2422-98.7793 32.1289-98.7793L100.195-98.7793C109.082-98.7793 113.672-94.1895 113.672-85.2539L113.672 15.0879C113.672 23.9746 109.082 28.5645 100.195 28.5645L32.1289 28.5645C23.2422 28.5645 18.6035 23.9746 18.6035 15.0879ZM39.5508-73.7305L92.8223-73.7305C93.6523-73.7305 94.2871-74.3652 94.2871-75.0977C94.2871-75.8789 93.6523-76.5137 92.8223-76.5137L39.5508-76.5137C38.7207-76.5137 38.0859-75.8789 38.0859-75.0977C38.0859-74.3652 38.7207-73.7305 39.5508-73.7305ZM39.5508-51.3184L92.8223-51.3184C93.6523-51.3184 94.2871-51.9531 94.2871-52.7344C94.2871-53.4668 93.6523-54.1016 92.8223-54.1016L39.5508-54.1016C38.7207-54.1016 38.0859-53.4668 38.0859-52.7344C38.0859-51.9531 38.7207-51.3184 39.5508-51.3184ZM39.5508-28.9551L66.1133-28.9551C66.9922-28.9551 67.627-29.5898 67.627-30.3223C67.627-31.1035 66.9922-31.7383 66.1133-31.7383L39.5508-31.7383C38.7207-31.7383 38.0859-31.1035 38.0859-30.3223C38.0859-29.5898 38.7207-28.9551 39.5508-28.9551Z"/>
  </g>
  <g id="Black-M" transform="matrix(1 0 0 1 2874.98 1126)">
   <path d="M12.4512 0.683594C12.4512 12.9395 19.7266 20.2148 31.9824 20.2148L84.8633 20.2148C97.1191 20.2148 104.395 12.9395 104.395 0.683594L104.395-71.0938C104.395-83.3496 97.1191-90.625 84.8633-90.625L31.9824-90.625C19.7266-90.625 12.4512-83.3496 12.4512-71.0938ZM30.7617-2.24609L30.7617-68.1641C30.7617-70.9961 31.8359-72.3145 34.9121-72.3145L81.9336-72.3145C85.0098-72.3145 86.1328-70.9961 86.1328-68.1641L86.1328-2.24609C86.1328 0.585938 85.0098 1.9043 81.9336 1.9043L34.9121 1.9043C31.8359 1.9043 30.7617 0.585938 30.7617-2.24609ZM43.8965-53.9062L73.0957-53.9062C75.0977-53.9062 76.5625-55.4688 76.5625-57.4707C76.5625-59.4238 75.0977-60.8887 73.0957-60.8887L43.8965-60.8887C41.8457-60.8887 40.332-59.4238 40.332-57.4707C40.332-55.4688 41.8457-53.9062 43.8965-53.9062ZM43.8965-39.0137L73.0957-39.0137C75.0977-39.0137 76.5625-40.5762 76.5625-42.5781C76.5625-44.4824 75.0977-45.9961 73.0957-45.9961L43.8965-45.9961C41.8457-45.9961 40.332-44.4824 40.332-42.5781C40.332-40.5762 41.8457-39.0137 43.8965-39.0137ZM43.8965-24.1211L59.9609-24.1211C61.9629-24.1211 63.4277-25.5859 63.4277-27.5391C63.4277-29.541 61.9629-31.1035 59.9609-31.1035L43.8965-31.1035C41.8457-31.1035 40.332-29.541 40.332-27.5391C40.332-25.5859 41.8457-24.1211 43.8965-24.1211Z"/>
  </g>
  <g id="Heavy-M" transform="matrix(1 0 0 1 2579.41 1126)">
   <path d="M12.4512 0.927734C12.4512 12.7441 19.1895 19.4824 30.957 19.4824L83.5938 19.4824C95.3125 19.4824 102.1 12.7441 102.1 0.927734L102.1-71.3379C102.1-83.1055 95.3125-89.8926 83.5938-89.8926L30.957-89.8926C19.1895-89.8926 12.4512-83.1055 12.4512-71.3379ZM28.2715-1.31836L28.2715-69.0918C28.2715-72.4121 29.7363-74.0723 33.3008-74.0723L81.25-74.0723C84.8145-74.0723 86.2793-72.4121 86.2793-69.0918L86.2793-1.31836C86.2793 2.00195 84.8145 3.66211 81.25 3.66211L33.3008 3.66211C29.7363 3.66211 28.2715 2.00195 28.2715-1.31836ZM41.7969-55.1758L72.8516-55.1758C74.7559-55.1758 76.2207-56.6895 76.2207-58.6426C76.2207-60.498 74.7559-61.9629 72.8516-61.9629L41.7969-61.9629C39.7949-61.9629 38.3789-60.498 38.3789-58.6426C38.3789-56.6895 39.7949-55.1758 41.7969-55.1758ZM41.7969-39.7949L72.8516-39.7949C74.7559-39.7949 76.2207-41.3086 76.2207-43.2129C76.2207-45.0684 74.7559-46.5332 72.8516-46.5332L41.7969-46.5332C39.7949-46.5332 38.3789-45.0684 38.3789-43.2129C38.3789-41.3086 39.7949-39.7949 41.7969-39.7949ZM41.7969-24.3652L58.2031-24.3652C60.1562-24.3652 61.5723-25.8301 61.5723-27.6855C61.5723-29.5898 60.1562-31.1035 58.2031-31.1035L41.7969-31.1035C39.7949-31.1035 38.3789-29.5898 38.3789-27.6855C38.3789-25.8301 39.7949-24.3652 41.7969-24.3652Z"/>
  </g>
  <g id="Bold-M" transform="matrix(1 0 0 1 2284 1126)">
   <path d="M12.4512 1.2207C12.4512 12.5 18.6035 18.6523 29.7852 18.6523L82.1777 18.6523C93.3105 18.6523 99.5117 12.5 99.5117 1.2207L99.5117-71.6797C99.5117-82.8613 93.3105-89.1113 82.1777-89.1113L29.7852-89.1113C18.6035-89.1113 12.4512-82.8613 12.4512-71.6797ZM25.5371-0.292969L25.5371-70.1172C25.5371-73.9746 27.3926-76.0254 31.4453-76.0254L80.4688-76.0254C84.5703-76.0254 86.4258-73.9746 86.4258-70.1172L86.4258-0.292969C86.4258 3.56445 84.5703 5.56641 80.4688 5.56641L31.4453 5.56641C27.3926 5.56641 25.5371 3.56445 25.5371-0.292969ZM39.4531-56.5918L72.6074-56.5918C74.4629-56.5918 75.8301-58.0566 75.8301-59.9121C75.8301-61.7188 74.4629-63.0859 72.6074-63.0859L39.4531-63.0859C37.5488-63.0859 36.1816-61.7188 36.1816-59.9121C36.1816-58.0566 37.5488-56.5918 39.4531-56.5918ZM39.4531-40.625L72.6074-40.625C74.4629-40.625 75.8301-42.0898 75.8301-43.9453C75.8301-45.752 74.4629-47.1191 72.6074-47.1191L39.4531-47.1191C37.5488-47.1191 36.1816-45.752 36.1816-43.9453C36.1816-42.0898 37.5488-40.625 39.4531-40.625ZM39.4531-24.6582L56.25-24.6582C58.1543-24.6582 59.5215-26.0742 59.5215-27.832C59.5215-29.6875 58.1543-31.1523 56.25-31.1523L39.4531-31.1523C37.5488-31.1523 36.1816-29.6875 36.1816-27.832C36.1816-26.0742 37.5488-24.6582 39.4531-24.6582Z"/>
  </g>
  <g id="Semibold-M" transform="matrix(1 0 0 1 1988.19 1126)">
   <path d="M12.4512 1.41602C12.4512 12.3047 18.2129 18.1152 29.0039 18.1152L81.1523 18.1152C91.9434 18.1152 97.7051 12.3047 97.7051 1.41602L97.7051-71.875C97.7051-82.7148 91.9434-88.5254 81.1523-88.5254L29.0039-88.5254C18.2129-88.5254 12.4512-82.7148 12.4512-71.875ZM23.6328 0.439453L23.6328-70.8496C23.6328-75.0977 25.7324-77.3438 30.1758-77.3438L79.9805-77.3438C84.375-77.3438 86.5234-75.0977 86.5234-70.8496L86.5234 0.439453C86.5234 4.63867 84.375 6.93359 79.9805 6.93359L30.1758 6.93359C25.7324 6.93359 23.6328 4.63867 23.6328 0.439453ZM37.8418-57.5684L72.4121-57.5684C74.2188-57.5684 75.5859-58.9844 75.5859-60.791C75.5859-62.5488 74.2188-63.916 72.4121-63.916L37.8418-63.916C35.9863-63.916 34.668-62.5488 34.668-60.791C34.668-58.9844 35.9863-57.5684 37.8418-57.5684ZM37.8418-41.2109L72.4121-41.2109C74.2188-41.2109 75.5859-42.627 75.5859-44.4336C75.5859-46.1914 74.2188-47.5586 72.4121-47.5586L37.8418-47.5586C35.9863-47.5586 34.668-46.1914 34.668-44.4336C34.668-42.627 35.9863-41.2109 37.8418-41.2109ZM37.8418-24.8535L54.9316-24.8535C56.7383-24.8535 58.1055-26.2207 58.1055-27.9785C58.1055-29.7852 56.7383-31.2012 54.9316-31.2012L37.8418-31.2012C35.9863-31.2012 34.668-29.7852 34.668-27.9785C34.668-26.2207 35.9863-24.8535 37.8418-24.8535Z"/>
  </g>
  <g id="Medium-M" transform="matrix(1 0 0 1 1692.16 1126)">
   <path d="M12.4512 1.61133C12.4512 12.1582 17.9199 17.6758 28.3691 17.6758L80.4199 17.6758C90.918 17.6758 96.3379 12.1582 96.3379 1.61133L96.3379-72.0215C96.3379-82.6172 90.918-88.1348 80.4199-88.1348L28.3691-88.1348C17.9199-88.1348 12.4512-82.6172 12.4512-72.0215ZM22.168 0.976562L22.168-71.4355C22.168-75.9277 24.5117-78.3691 29.248-78.3691L79.541-78.3691C84.2773-78.3691 86.6211-75.9277 86.6211-71.4355L86.6211 0.976562C86.6211 5.46875 84.2773 7.91016 79.541 7.91016L29.248 7.91016C24.5117 7.91016 22.168 5.46875 22.168 0.976562ZM36.6699-58.3008L72.2656-58.3008C74.0234-58.3008 75.3906-59.7168 75.3906-61.4746C75.3906-63.1836 74.0234-64.502 72.2656-64.502L36.6699-64.502C34.8145-64.502 33.4961-63.1836 33.4961-61.4746C33.4961-59.7168 34.8145-58.3008 36.6699-58.3008ZM36.6699-41.6504L72.2656-41.6504C74.0234-41.6504 75.3906-43.0664 75.3906-44.8242C75.3906-46.5332 74.0234-47.8516 72.2656-47.8516L36.6699-47.8516C34.8145-47.8516 33.4961-46.5332 33.4961-44.8242C33.4961-43.0664 34.8145-41.6504 36.6699-41.6504ZM36.6699-25L53.9062-25C55.7129-25 57.0312-26.3672 57.0312-28.0762C57.0312-29.834 55.7129-31.2012 53.9062-31.2012L36.6699-31.2012C34.8145-31.2012 33.4961-29.834 33.4961-28.0762C33.4961-26.3672 34.8145-25 36.6699-25Z"/>
  </g>
  <g id="Regular-M" transform="matrix(1 0 0 1 1396.33 1126)">
   <path d="M12.4512 1.80664C12.4512 12.0117 17.4805 17.0898 27.5879 17.0898L79.4434 17.0898C89.5508 17.0898 94.5801 12.0117 94.5801 1.80664L94.5801-72.2656C94.5801-82.4219 89.5508-87.5977 79.4434-87.5977L27.5879-87.5977C17.4805-87.5977 12.4512-82.4219 12.4512-72.2656ZM20.3125 1.66016L20.3125-72.1191C20.3125-77.002 22.9004-79.7363 27.9785-79.7363L79.0527-79.7363C84.1309-79.7363 86.7188-77.002 86.7188-72.1191L86.7188 1.66016C86.7188 6.54297 84.1309 9.22852 79.0527 9.22852L27.9785 9.22852C22.9004 9.22852 20.3125 6.54297 20.3125 1.66016ZM35.0586-59.2773L72.0703-59.2773C73.8281-59.2773 75.0977-60.6445 75.0977-62.3535C75.0977-64.0137 73.8281-65.2832 72.0703-65.2832L35.0586-65.2832C33.3008-65.2832 31.9824-64.0137 31.9824-62.3535C31.9824-60.6445 33.3008-59.2773 35.0586-59.2773ZM35.0586-42.2363L72.0703-42.2363C73.8281-42.2363 75.0977-43.6035 75.0977-45.3125C75.0977-46.9727 73.8281-48.2422 72.0703-48.2422L35.0586-48.2422C33.3008-48.2422 31.9824-46.9727 31.9824-45.3125C31.9824-43.6035 33.3008-42.2363 35.0586-42.2363ZM35.0586-25.1953L52.5879-25.1953C54.2969-25.1953 55.6152-26.5137 55.6152-28.1738C55.6152-29.8828 54.2969-31.2012 52.5879-31.2012L35.0586-31.2012C33.3008-31.2012 31.9824-29.8828 31.9824-28.1738C31.9824-26.5137 33.3008-25.1953 35.0586-25.1953Z"/>
  </g>
  <g id="Light-M" transform="matrix(1 0 0 1 1100.33 1126)">
   <path d="M12.4512 2.44141C12.4512 11.9629 17.2852 16.8457 26.709 16.8457L78.9062 16.8457C88.3789 16.8457 93.1641 11.9629 93.1641 2.44141L93.1641-72.8516C93.1641-82.373 88.3789-87.207 78.9062-87.207L26.709-87.207C17.2852-87.207 12.4512-82.373 12.4512-72.8516ZM18.5059 2.29492L18.5059-72.7051C18.5059-78.2227 21.3867-81.2012 27.0508-81.2012L78.6133-81.2012C84.2285-81.2012 87.1582-78.2227 87.1582-72.7051L87.1582 2.29492C87.1582 7.8125 84.2285 10.791 78.6133 10.791L27.0508 10.791C21.3867 10.791 18.5059 7.8125 18.5059 2.29492ZM33.6914-61.084L72.0215-61.084C73.4375-61.084 74.4629-62.1582 74.4629-63.5254C74.4629-64.8438 73.4375-65.8691 72.0215-65.8691L33.6914-65.8691C32.2754-65.8691 31.25-64.8438 31.25-63.5254C31.25-62.1582 32.2754-61.084 33.6914-61.084ZM33.6914-43.9453L72.0215-43.9453C73.4375-43.9453 74.4629-45.0195 74.4629-46.3867C74.4629-47.7051 73.4375-48.7305 72.0215-48.7305L33.6914-48.7305C32.2754-48.7305 31.25-47.7051 31.25-46.3867C31.25-45.0195 32.2754-43.9453 33.6914-43.9453ZM33.6914-26.8066L52.1973-26.8066C53.5645-26.8066 54.6387-27.832 54.6387-29.1992C54.6387-30.5664 53.5645-31.6406 52.1973-31.6406L33.6914-31.6406C32.2754-31.6406 31.25-30.5664 31.25-29.1992C31.25-27.832 32.2754-26.8066 33.6914-26.8066Z"/>
  </g>
  <g id="Thin-M" transform="matrix(1 0 0 1 804.518 1126)">
   <path d="M12.4512 3.27148C12.4512 11.9629 16.9434 16.4551 25.5859 16.4551L78.2227 16.4551C86.8164 16.4551 91.3574 11.9629 91.3574 3.27148L91.3574-73.584C91.3574-82.2266 86.8164-86.7676 78.2227-86.7676L25.5859-86.7676C16.9434-86.7676 12.4512-82.2266 12.4512-73.584ZM16.0645 3.17383L16.0645-73.4863C16.0645-79.834 19.3848-83.1543 25.7812-83.1543L78.0273-83.1543C84.4238-83.1543 87.7441-79.834 87.7441-73.4863L87.7441 3.17383C87.7441 9.52148 84.4238 12.8418 78.0273 12.8418L25.7812 12.8418C19.3848 12.8418 16.0645 9.52148 16.0645 3.17383ZM31.8848-63.4277L71.9727-63.4277C72.9492-63.4277 73.6328-64.1602 73.6328-65.0879C73.6328-65.9668 72.9492-66.6504 71.9727-66.6504L31.8848-66.6504C30.957-66.6504 30.2246-65.9668 30.2246-65.0879C30.2246-64.1602 30.957-63.4277 31.8848-63.4277ZM31.8848-46.1914L71.9727-46.1914C72.9492-46.1914 73.6328-46.9238 73.6328-47.8027C73.6328-48.6816 72.9492-49.4141 71.9727-49.4141L31.8848-49.4141C30.957-49.4141 30.2246-48.6816 30.2246-47.8027C30.2246-46.9238 30.957-46.1914 31.8848-46.1914ZM31.8848-28.9062L51.6113-28.9062C52.5879-28.9062 53.3203-29.6387 53.3203-30.5176C53.3203-31.3965 52.5879-32.1289 51.6113-32.1289L31.8848-32.1289C30.957-32.1289 30.2246-31.3965 30.2246-30.5176C30.2246-29.6387 30.957-28.9062 31.8848-28.9062Z"/>
  </g>
  <g id="Ultralight-M" transform="matrix(1 0 0 1 508.295 1126)">
   <path d="M12.4512 3.71094C12.4512 11.9141 16.7969 16.2598 25 16.2598L77.8809 16.2598C86.0352 16.2598 90.3809 11.9141 90.3809 3.71094L90.3809-73.9746C90.3809-82.1777 86.0352-86.5234 77.8809-86.5234L25-86.5234C16.7969-86.5234 12.4512-82.1777 12.4512-73.9746ZM14.8438 3.61328L14.8438-73.877C14.8438-80.6152 18.3594-84.1309 25.0977-84.1309L77.7344-84.1309C84.5215-84.1309 87.9883-80.6152 87.9883-73.877L87.9883 3.61328C87.9883 10.3516 84.5215 13.8672 77.7344 13.8672L25.0977 13.8672C18.3594 13.8672 14.8438 10.3516 14.8438 3.61328ZM30.957-64.6484L71.9238-64.6484C72.6562-64.6484 73.1934-65.1855 73.1934-65.8691C73.1934-66.5527 72.6562-67.0898 71.9238-67.0898L30.957-67.0898C30.2734-67.0898 29.6875-66.5527 29.6875-65.8691C29.6875-65.1855 30.2734-64.6484 30.957-64.6484ZM30.957-47.3145L71.9238-47.3145C72.6562-47.3145 73.1934-47.8516 73.1934-48.5352C73.1934-49.2188 72.6562-49.7559 71.9238-49.7559L30.957-49.7559C30.2734-49.7559 29.6875-49.2188 29.6875-48.5352C29.6875-47.8516 30.2734-47.3145 30.957-47.3145ZM30.957-29.9805L51.3672-29.9805C52.0996-29.9805 52.6367-30.5176 52.6367-31.2012C52.6367-31.8848 52.0996-32.4219 51.3672-32.4219L30.957-32.4219C30.2734-32.4219 29.6875-31.8848 29.6875-31.2012C29.6875-30.5176 30.2734-29.9805 30.957-29.9805Z"/>
  </g>
  <g id="Black-S" transform="matrix(1 0 0 1 2887.7 696)">
   <path d="M9.76562-7.08008C9.76562 2.49023 15.4297 8.1543 25 8.1543L66.4062 8.1543C75.9766 8.1543 81.6406 2.49023 81.6406-7.08008L81.6406-63.3301C81.6406-72.9004 75.9766-78.5645 66.4062-78.5645L25-78.5645C15.4297-78.5645 9.76562-72.9004 9.76562-63.3301ZM23.9258-9.32617L23.9258-61.084C23.9258-63.3301 24.8047-64.4043 27.2461-64.4043L64.1602-64.4043C66.6016-64.4043 67.4805-63.3301 67.4805-61.084L67.4805-9.32617C67.4805-7.08008 66.6016-6.00586 64.1602-6.00586L27.2461-6.00586C24.8047-6.00586 23.9258-7.08008 23.9258-9.32617ZM34.2285-49.9512L57.2266-49.9512C58.7891-49.9512 59.9609-51.1719 59.9609-52.7344C59.9609-54.248 58.7891-55.4199 57.2266-55.4199L34.2285-55.4199C32.6172-55.4199 31.4453-54.248 31.4453-52.7344C31.4453-51.1719 32.6172-49.9512 34.2285-49.9512ZM34.2285-38.2324L57.2266-38.2324C58.7891-38.2324 59.9609-39.4531 59.9609-41.0156C59.9609-42.5293 58.7891-43.7012 57.2266-43.7012L34.2285-43.7012C32.6172-43.7012 31.4453-42.5293 31.4453-41.0156C31.4453-39.4531 32.6172-38.2324 34.2285-38.2324ZM34.2285-26.5137L46.8262-26.5137C48.3887-26.5137 49.5605-27.6855 49.5605-29.1992C49.5605-30.7617 48.3887-31.9824 46.8262-31.9824L34.2285-31.9824C32.6172-31.9824 31.4453-30.7617 31.4453-29.1992C31.4453-27.6855 32.6172-26.5137 34.2285-26.5137Z"/>
  </g>
  <g id="Heavy-S" transform="matrix(1 0 0 1 2591.79 696)">
   <path d="M9.76562-6.93359C9.76562 2.34375 15.0391 7.61719 24.3164 7.61719L65.4785 7.61719C74.7559 7.61719 80.0293 2.34375 80.0293-6.93359L80.0293-63.4766C80.0293-72.7539 74.7559-78.0762 65.4785-78.0762L24.3164-78.0762C15.0391-78.0762 9.76562-72.7539 9.76562-63.4766ZM22.2656-8.69141L22.2656-61.7188C22.2656-64.3066 23.3887-65.5762 26.123-65.5762L63.6719-65.5762C66.4062-65.5762 67.5293-64.3066 67.5293-61.7188L67.5293-8.69141C67.5293-6.15234 66.4062-4.83398 63.6719-4.83398L26.123-4.83398C23.3887-4.83398 22.2656-6.15234 22.2656-8.69141ZM32.7637-50.7324L57.0312-50.7324C58.5938-50.7324 59.7656-51.9531 59.7656-53.4668C59.7656-54.9805 58.5938-56.1523 57.0312-56.1523L32.7637-56.1523C31.2012-56.1523 30.0293-54.9805 30.0293-53.4668C30.0293-51.9531 31.2012-50.7324 32.7637-50.7324ZM32.7637-38.623L57.0312-38.623C58.5938-38.623 59.7656-39.8438 59.7656-41.4062C59.7656-42.8711 58.5938-44.043 57.0312-44.043L32.7637-44.043C31.2012-44.043 30.0293-42.8711 30.0293-41.4062C30.0293-39.8438 31.2012-38.623 32.7637-38.623ZM32.7637-26.5137L45.5566-26.5137C47.0703-26.5137 48.2422-27.6855 48.2422-29.1992C48.2422-30.7617 47.0703-31.9824 45.5566-31.9824L32.7637-31.9824C31.2012-31.9824 30.0293-30.7617 30.0293-29.1992C30.0293-27.6855 31.2012-26.5137 32.7637-26.5137Z"/>
  </g>
  <g id="Bold-S" transform="matrix(1 0 0 1 2295.98 696)">
   <path d="M9.76562-6.78711C9.76562 2.14844 14.6484 7.03125 23.5352 7.03125L64.4531 7.03125C73.3398 7.03125 78.2227 2.14844 78.2227-6.78711L78.2227-63.623C78.2227-72.5586 73.3398-77.4902 64.4531-77.4902L23.5352-77.4902C14.6484-77.4902 9.76562-72.5586 9.76562-63.623ZM20.3613-7.95898L20.3613-62.4512C20.3613-65.332 21.7773-66.8945 24.8047-66.8945L63.1348-66.8945C66.2109-66.8945 67.627-65.332 67.627-62.4512L67.627-7.95898C67.627-5.07812 66.2109-3.56445 63.1348-3.56445L24.8047-3.56445C21.7773-3.56445 20.3613-5.07812 20.3613-7.95898ZM31.1523-51.5625L56.8359-51.5625C58.3984-51.5625 59.5703-52.7832 59.5703-54.2969C59.5703-55.8105 58.3984-56.9336 56.8359-56.9336L31.1523-56.9336C29.5898-56.9336 28.418-55.8105 28.418-54.2969C28.418-52.7832 29.5898-51.5625 31.1523-51.5625ZM31.1523-39.0625L56.8359-39.0625C58.3984-39.0625 59.5703-40.2832 59.5703-41.7969C59.5703-43.3105 58.3984-44.4336 56.8359-44.4336L31.1523-44.4336C29.5898-44.4336 28.418-43.3105 28.418-41.7969C28.418-40.2832 29.5898-39.0625 31.1523-39.0625ZM31.1523-26.5625L44.0918-26.5625C45.6543-26.5625 46.7773-27.7344 46.7773-29.1992C46.7773-30.7617 45.6543-31.9336 44.0918-31.9336L31.1523-31.9336C29.5898-31.9336 28.418-30.7617 28.418-29.1992C28.418-27.7344 29.5898-26.5625 31.1523-26.5625Z"/>
  </g>
  <g id="Semibold-S" transform="matrix(1 0 0 1 1999.91 696)">
   <path d="M9.76562-6.68945C9.76562 2.00195 14.3555 6.64062 22.998 6.64062L63.7695 6.64062C72.4121 6.64062 76.9531 2.00195 76.9531-6.68945L76.9531-63.7695C76.9531-72.4609 72.4121-77.0996 63.7695-77.0996L22.998-77.0996C14.3555-77.0996 9.76562-72.4609 9.76562-63.7695ZM19.0918-7.4707L19.0918-62.9883C19.0918-66.0645 20.6543-67.7734 23.9258-67.7734L62.793-67.7734C66.0645-67.7734 67.6758-66.0645 67.6758-62.9883L67.6758-7.4707C67.6758-4.39453 66.0645-2.68555 62.793-2.68555L23.9258-2.68555C20.6543-2.68555 19.0918-4.39453 19.0918-7.4707ZM30.0781-52.1484L56.7383-52.1484C58.252-52.1484 59.375-53.3691 59.375-54.8828C59.375-56.3477 58.252-57.5195 56.7383-57.5195L30.0781-57.5195C28.4668-57.5195 27.3438-56.3477 27.3438-54.8828C27.3438-53.3691 28.4668-52.1484 30.0781-52.1484ZM30.0781-39.3555L56.7383-39.3555C58.252-39.3555 59.375-40.5762 59.375-42.0898C59.375-43.5547 58.252-44.7266 56.7383-44.7266L30.0781-44.7266C28.4668-44.7266 27.3438-43.5547 27.3438-42.0898C27.3438-40.5762 28.4668-39.3555 30.0781-39.3555ZM30.0781-26.5625L43.1152-26.5625C44.6289-26.5625 45.8008-27.7344 45.8008-29.1992C45.8008-30.7129 44.6289-31.9336 43.1152-31.9336L30.0781-31.9336C28.4668-31.9336 27.3438-30.7129 27.3438-29.1992C27.3438-27.7344 28.4668-26.5625 30.0781-26.5625Z"/>
  </g>
  <g id="Medium-S" transform="matrix(1 0 0 1 1703.66 696)">
   <path d="M9.76562-6.64062C9.76562 1.9043 14.1113 6.29883 22.5586 6.29883L63.2324 6.29883C71.6797 6.29883 76.0254 1.9043 76.0254-6.64062L76.0254-63.8672C76.0254-72.3633 71.6797-76.8066 63.2324-76.8066L22.5586-76.8066C14.1113-76.8066 9.76562-72.3633 9.76562-63.8672ZM18.0664-7.12891L18.0664-63.3789C18.0664-66.6504 19.8242-68.457 23.291-68.457L62.5-68.457C65.9668-68.457 67.6758-66.6504 67.6758-63.3789L67.6758-7.12891C67.6758-3.85742 65.9668-2.00195 62.5-2.00195L23.291-2.00195C19.8242-2.00195 18.0664-3.85742 18.0664-7.12891ZM29.1992-52.6367L56.6406-52.6367C58.1543-52.6367 59.2773-53.8086 59.2773-55.3223C59.2773-56.7871 58.1543-57.959 56.6406-57.959L29.1992-57.959C27.6367-57.959 26.5137-56.7871 26.5137-55.3223C26.5137-53.8086 27.6367-52.6367 29.1992-52.6367ZM29.1992-39.5996L56.6406-39.5996C58.1543-39.5996 59.2773-40.7715 59.2773-42.334C59.2773-43.7988 58.1543-44.9219 56.6406-44.9219L29.1992-44.9219C27.6367-44.9219 26.5137-43.7988 26.5137-42.334C26.5137-40.7715 27.6367-39.5996 29.1992-39.5996ZM29.1992-26.6113L42.3828-26.6113C43.8965-26.6113 45.0195-27.7344 45.0195-29.1992C45.0195-30.7129 43.8965-31.9336 42.3828-31.9336L29.1992-31.9336C27.6367-31.9336 26.5137-30.7129 26.5137-29.1992C26.5137-27.7344 27.6367-26.6113 29.1992-26.6113Z"/>
  </g>
  <g id="Regular-S" transform="matrix(1 0 0 1 1407.56 696)">
   <path d="M9.76562-6.54297C9.76562 1.80664 13.8184 5.9082 22.0215 5.9082L62.5 5.9082C70.7031 5.9082 74.8047 1.80664 74.8047-6.54297L74.8047-63.9648C74.8047-72.2656 70.7031-76.416 62.5-76.416L22.0215-76.416C13.8184-76.416 9.76562-72.2656 9.76562-63.9648ZM16.7969-6.64062L16.7969-63.8672C16.7969-67.3828 18.7012-69.3848 22.4121-69.3848L62.1582-69.3848C65.8203-69.3848 67.7246-67.3828 67.7246-63.8672L67.7246-6.64062C67.7246-3.125 65.8203-1.12305 62.1582-1.12305L22.4121-1.12305C18.7012-1.12305 16.7969-3.125 16.7969-6.64062ZM28.125-53.2227L56.4941-53.2227C58.0078-53.2227 59.1309-54.3945 59.1309-55.9082C59.1309-57.373 58.0078-58.4961 56.4941-58.4961L28.125-58.4961C26.5625-58.4961 25.4395-57.373 25.4395-55.9082C25.4395-54.3945 26.5625-53.2227 28.125-53.2227ZM28.125-39.8926L56.4941-39.8926C58.0078-39.8926 59.1309-41.1133 59.1309-42.5781C59.1309-44.043 58.0078-45.2148 56.4941-45.2148L28.125-45.2148C26.5625-45.2148 25.4395-44.043 25.4395-42.5781C25.4395-41.1133 26.5625-39.8926 28.125-39.8926ZM28.125-26.6113L41.4062-26.6113C42.9199-26.6113 44.043-27.7344 44.043-29.1992C44.043-30.7129 42.9199-31.8848 41.4062-31.8848L28.125-31.8848C26.5625-31.8848 25.4395-30.7129 25.4395-29.1992C25.4395-27.7344 26.5625-26.6113 28.125-26.6113Z"/>
  </g>
  <g id="Light-S" transform="matrix(1 0 0 1 1111.48 696)">
   <path d="M9.76562-5.95703C9.76562 1.75781 13.623 5.66406 21.2891 5.66406L62.0605 5.66406C69.6777 5.66406 73.5352 1.75781 73.5352-5.95703L73.5352-64.4531C73.5352-72.168 69.6777-76.123 62.0605-76.123L21.2891-76.123C13.623-76.123 9.76562-72.168 9.76562-64.4531ZM15.1855-6.05469L15.1855-64.3555C15.1855-68.457 17.3828-70.6543 21.582-70.6543L61.7676-70.6543C65.9668-70.6543 68.1152-68.457 68.1152-64.3555L68.1152-6.05469C68.1152-2.00195 65.9668 0.244141 61.7676 0.244141L21.582 0.244141C17.3828 0.244141 15.1855-2.00195 15.1855-6.05469ZM26.9043-54.7852L56.4453-54.7852C57.666-54.7852 58.5938-55.7129 58.5938-56.9336C58.5938-58.1055 57.666-59.0332 56.4453-59.0332L26.9043-59.0332C25.6348-59.0332 24.7559-58.1055 24.7559-56.9336C24.7559-55.7129 25.6348-54.7852 26.9043-54.7852ZM26.9043-41.4062L56.4453-41.4062C57.666-41.4062 58.5938-42.334 58.5938-43.5547C58.5938-44.7266 57.666-45.6543 56.4453-45.6543L26.9043-45.6543C25.6348-45.6543 24.7559-44.7266 24.7559-43.5547C24.7559-42.334 25.6348-41.4062 26.9043-41.4062ZM26.9043-28.0273L41.0156-28.0273C42.2363-28.0273 43.1641-28.9551 43.1641-30.127C43.1641-31.2988 42.2363-32.2266 41.0156-32.2266L26.9043-32.2266C25.6348-32.2266 24.7559-31.2988 24.7559-30.127C24.7559-28.9551 25.6348-28.0273 26.9043-28.0273Z"/>
  </g>
  <g id="Thin-S" transform="matrix(1 0 0 1 815.578 696)">
   <path d="M9.76562-5.22461C9.76562 1.75781 13.3789 5.32227 20.2637 5.32227L61.4258 5.32227C68.3594 5.32227 71.9238 1.75781 71.9238-5.22461L71.9238-65.1367C71.9238-72.0703 68.3594-75.6836 61.4258-75.6836L20.2637-75.6836C13.3789-75.6836 9.76562-72.0703 9.76562-65.1367ZM13.0859-5.32227L13.0859-65.0391C13.0859-69.873 15.5762-72.4121 20.459-72.4121L61.2793-72.4121C66.1133-72.4121 68.6035-69.873 68.6035-65.0391L68.6035-5.32227C68.6035-0.488281 66.1133 2.05078 61.2793 2.05078L20.459 2.05078C15.5762 2.05078 13.0859-0.488281 13.0859-5.32227ZM25.3418-56.8848L56.3965-56.8848C57.2266-56.8848 57.8613-57.5195 57.8613-58.3008C57.8613-59.082 57.2266-59.7168 56.3965-59.7168L25.3418-59.7168C24.4629-59.7168 23.877-59.082 23.877-58.3008C23.877-57.5195 24.4629-56.8848 25.3418-56.8848ZM25.3418-43.3594L56.3965-43.3594C57.2266-43.3594 57.8613-43.9941 57.8613-44.8242C57.8613-45.6055 57.2266-46.1914 56.3965-46.1914L25.3418-46.1914C24.4629-46.1914 23.877-45.6055 23.877-44.8242C23.877-43.9941 24.4629-43.3594 25.3418-43.3594ZM25.3418-29.8828L40.5273-29.8828C41.3574-29.8828 41.9922-30.5176 41.9922-31.2988C41.9922-32.0801 41.3574-32.7148 40.5273-32.7148L25.3418-32.7148C24.4629-32.7148 23.877-32.0801 23.877-31.2988C23.877-30.5176 24.4629-29.8828 25.3418-29.8828Z"/>
  </g>
  <g id="Ultralight-S" transform="matrix(1 0 0 1 519.281 696)">
   <path d="M9.76562-4.83398C9.76562 1.70898 13.2324 5.17578 19.7266 5.17578L61.084 5.17578C67.627 5.17578 71.0938 1.70898 71.0938-4.83398L71.0938-65.4785C71.0938-72.0215 67.627-75.4883 61.084-75.4883L19.7266-75.4883C13.2324-75.4883 9.76562-72.0215 9.76562-65.4785ZM11.9629-4.93164L11.9629-65.3809C11.9629-70.6055 14.6484-73.291 19.873-73.291L60.9863-73.291C66.2109-73.291 68.8965-70.6055 68.8965-65.3809L68.8965-4.93164C68.8965 0.244141 66.2109 2.97852 60.9863 2.97852L19.873 2.97852C14.6484 2.97852 11.9629 0.244141 11.9629-4.93164ZM24.5117-57.959L56.3477-57.959C56.9824-57.959 57.4707-58.4473 57.4707-59.0332C57.4707-59.6191 56.9824-60.0586 56.3477-60.0586L24.5117-60.0586C23.877-60.0586 23.3887-59.6191 23.3887-59.0332C23.3887-58.4473 23.877-57.959 24.5117-57.959ZM24.5117-44.3848L56.3477-44.3848C56.9824-44.3848 57.4707-44.873 57.4707-45.459C57.4707-46.0449 56.9824-46.5332 56.3477-46.5332L24.5117-46.5332C23.877-46.5332 23.3887-46.0449 23.3887-45.459C23.3887-44.873 23.877-44.3848 24.5117-44.3848ZM24.5117-30.8594L40.2832-30.8594C40.918-30.8594 41.4062-31.2988 41.4062-31.8848C41.4062-32.4707 40.918-32.959 40.2832-32.959L24.5117-32.959C23.877-32.959 23.3887-32.4707 23.3887-31.8848C23.3887-31.2988 23.877-30.8594 24.5117-30.8594Z"/>
  </g>
 </g>
</svg>
