<?xml version="1.0" encoding="UTF-8"?>
<!--Generator: Apple Native CoreSVG 149-->
<!DOCTYPE svg
PUBLIC "-//W3C//DTD SVG 1.1//EN"
       "http://www.w3.org/Graphics/SVG/1.1/DTD/svg11.dtd">
<svg version="1.1" xmlns="http://www.w3.org/2000/svg" xmlns:xlink="http://www.w3.org/1999/xlink" width="3300" height="2200">
 <!--glyph: "uni100245.medium", point size: 100.000000, font version: "Version 16.0d18e1", template writer version: "8"-->
 <g id="Notes">
  <rect height="2200" id="artboard" style="fill:white;opacity:1" width="3300" x="0" y="0"/>
  <line id="" style="fill:none;stroke:black;opacity:1;stroke-width:0.5;" x1="263" x2="3036" y1="292" y2="292"/>
  <text style="stroke:none;fill:black;font-family:-apple-system,&quot;SF Pro Display&quot;,&quot;SF Pro Text&quot;,Helvetica,sans-serif;font-weight:bold;" transform="matrix(1 0 0 1 263 322)">Weight/Scale Variations</text>
  <text style="stroke:none;fill:black;font-family:-apple-system,&quot;SF Pro Display&quot;,&quot;SF Pro Text&quot;,Helvetica,sans-serif;text-anchor:middle;" transform="matrix(1 0 0 1 559.711 322)">Ultralight</text>
  <text style="stroke:none;fill:black;font-family:-apple-system,&quot;SF Pro Display&quot;,&quot;SF Pro Text&quot;,Helvetica,sans-serif;text-anchor:middle;" transform="matrix(1 0 0 1 856.422 322)">Thin</text>
  <text style="stroke:none;fill:black;font-family:-apple-system,&quot;SF Pro Display&quot;,&quot;SF Pro Text&quot;,Helvetica,sans-serif;text-anchor:middle;" transform="matrix(1 0 0 1 1153.13 322)">Light</text>
  <text style="stroke:none;fill:black;font-family:-apple-system,&quot;SF Pro Display&quot;,&quot;SF Pro Text&quot;,Helvetica,sans-serif;text-anchor:middle;" transform="matrix(1 0 0 1 1449.84 322)">Regular</text>
  <text style="stroke:none;fill:black;font-family:-apple-system,&quot;SF Pro Display&quot;,&quot;SF Pro Text&quot;,Helvetica,sans-serif;text-anchor:middle;" transform="matrix(1 0 0 1 1746.56 322)">Medium</text>
  <text style="stroke:none;fill:black;font-family:-apple-system,&quot;SF Pro Display&quot;,&quot;SF Pro Text&quot;,Helvetica,sans-serif;text-anchor:middle;" transform="matrix(1 0 0 1 2043.27 322)">Semibold</text>
  <text style="stroke:none;fill:black;font-family:-apple-system,&quot;SF Pro Display&quot;,&quot;SF Pro Text&quot;,Helvetica,sans-serif;text-anchor:middle;" transform="matrix(1 0 0 1 2339.98 322)">Bold</text>
  <text style="stroke:none;fill:black;font-family:-apple-system,&quot;SF Pro Display&quot;,&quot;SF Pro Text&quot;,Helvetica,sans-serif;text-anchor:middle;" transform="matrix(1 0 0 1 2636.69 322)">Heavy</text>
  <text style="stroke:none;fill:black;font-family:-apple-system,&quot;SF Pro Display&quot;,&quot;SF Pro Text&quot;,Helvetica,sans-serif;text-anchor:middle;" transform="matrix(1 0 0 1 2933.4 322)">Black</text>
  <line id="" style="fill:none;stroke:black;opacity:1;stroke-width:0.5;" x1="263" x2="3036" y1="1903" y2="1903"/>
  <g id="" transform="matrix(1 0 0 1 263 1933)">
   <path d="M9.24805 0.830078C13.5547 0.830078 17.1387-2.74414 17.1387-7.05078C17.1387-11.3574 13.5449-14.9316 9.23828-14.9316C4.94141-14.9316 1.36719-11.3574 1.36719-7.05078C1.36719-2.74414 4.95117 0.830078 9.24805 0.830078ZM9.24805-0.654297C5.70312-0.654297 2.87109-3.49609 2.87109-7.05078C2.87109-10.6055 5.69336-13.4473 9.23828-13.4473C12.793-13.4473 15.6348-10.6055 15.6445-7.05078C15.6543-3.49609 12.8027-0.654297 9.24805-0.654297ZM6.39648-6.31836L8.50586-6.31836L8.50586-4.19922C8.50586-3.75977 8.79883-3.45703 9.22852-3.45703C9.67773-3.45703 9.9707-3.75977 9.9707-4.19922L9.9707-6.31836L12.0996-6.31836C12.5391-6.31836 12.8418-6.61133 12.8418-7.04102C12.8418-7.48047 12.5391-7.7832 12.0996-7.7832L9.9707-7.7832L9.9707-9.89258C9.9707-10.3418 9.67773-10.6445 9.22852-10.6445C8.79883-10.6445 8.50586-10.3418 8.50586-9.89258L8.50586-7.7832L6.39648-7.7832C5.94727-7.7832 5.64453-7.48047 5.64453-7.04102C5.64453-6.61133 5.94727-6.31836 6.39648-6.31836Z"/>
  </g>
  <g id="" transform="matrix(1 0 0 1 281.506 1933)">
   <path d="M11.709 2.91016C17.1582 2.91016 21.6699-1.61133 21.6699-7.05078C21.6699-12.5 17.1484-17.0117 11.6992-17.0117C6.25977-17.0117 1.74805-12.5 1.74805-7.05078C1.74805-1.61133 6.26953 2.91016 11.709 2.91016ZM11.709 1.25C7.09961 1.25 3.41797-2.44141 3.41797-7.05078C3.41797-11.6602 7.08984-15.3516 11.6992-15.3516C16.3086-15.3516 20-11.6602 20.0098-7.05078C20.0195-2.44141 16.3184 1.25 11.709 1.25ZM7.98828-6.23047L10.8789-6.23047L10.8789-3.32031C10.8789-2.83203 11.2109-2.5 11.6895-2.5C12.1777-2.5 12.5195-2.83203 12.5195-3.32031L12.5195-6.23047L15.4297-6.23047C15.918-6.23047 16.25-6.5625 16.25-7.04102C16.25-7.5293 15.918-7.87109 15.4297-7.87109L12.5195-7.87109L12.5195-10.7617C12.5195-11.2695 12.1777-11.6016 11.6895-11.6016C11.2109-11.6016 10.8789-11.2598 10.8789-10.7617L10.8789-7.87109L7.98828-7.87109C7.48047-7.87109 7.14844-7.5293 7.14844-7.04102C7.14844-6.5625 7.49023-6.23047 7.98828-6.23047Z"/>
  </g>
  <g id="" transform="matrix(1 0 0 1 304.924 1933)">
   <path d="M14.9707 5.66406C21.9336 5.66406 27.6953-0.0976562 27.6953-7.05078C27.6953-14.0137 21.9238-19.7754 14.9609-19.7754C8.00781-19.7754 2.25586-14.0137 2.25586-7.05078C2.25586-0.0976562 8.01758 5.66406 14.9707 5.66406ZM14.9707 3.84766C8.93555 3.84766 4.08203-1.01562 4.08203-7.05078C4.08203-13.0957 8.92578-17.9492 14.9609-17.9492C21.0059-17.9492 25.8594-13.0957 25.8691-7.05078C25.8789-1.01562 21.0156 3.84766 14.9707 3.84766ZM10.0586-6.14258L14.0625-6.14258L14.0625-2.12891C14.0625-1.5918 14.4336-1.2207 14.9512-1.2207C15.4883-1.2207 15.8594-1.5918 15.8594-2.12891L15.8594-6.14258L19.8828-6.14258C20.4102-6.14258 20.791-6.51367 20.791-7.03125C20.791-7.56836 20.4199-7.94922 19.8828-7.94922L15.8594-7.94922L15.8594-11.9531C15.8594-12.5098 15.4883-12.8809 14.9512-12.8809C14.4336-12.8809 14.0625-12.5 14.0625-11.9531L14.0625-7.94922L10.0586-7.94922C9.50195-7.94922 9.13086-7.56836 9.13086-7.03125C9.13086-6.51367 9.51172-6.14258 10.0586-6.14258Z"/>
  </g>
  <text style="stroke:none;fill:black;font-family:-apple-system,&quot;SF Pro Display&quot;,&quot;SF Pro Text&quot;,Helvetica,sans-serif;font-weight:bold;" transform="matrix(1 0 0 1 263 1953)">Design Variations</text>
  <text style="stroke:none;fill:black;font-family:-apple-system,&quot;SF Pro Display&quot;,&quot;SF Pro Text&quot;,Helvetica,sans-serif;" transform="matrix(1 0 0 1 263 1971)">Symbols are supported in up to nine weights and three scales.</text>
  <text style="stroke:none;fill:black;font-family:-apple-system,&quot;SF Pro Display&quot;,&quot;SF Pro Text&quot;,Helvetica,sans-serif;" transform="matrix(1 0 0 1 263 1989)">For optimal layout with text and other symbols, vertically align</text>
  <text style="stroke:none;fill:black;font-family:-apple-system,&quot;SF Pro Display&quot;,&quot;SF Pro Text&quot;,Helvetica,sans-serif;" transform="matrix(1 0 0 1 263 2007)">symbols with the adjacent text.</text>
  <line id="" style="fill:none;stroke:#00AEEF;stroke-width:0.5;opacity:1.0;" x1="776" x2="776" y1="1919" y2="1933"/>
  <g id="" transform="matrix(1 0 0 1 776 1933)">
   <path d="M3.31055 0.126953C3.82812 0.126953 4.08203-0.0683594 4.26758-0.605469L5.52734-4.0625L11.2891-4.0625L12.5488-0.605469C12.7344-0.0683594 12.9883 0.126953 13.4961 0.126953C14.0137 0.126953 14.3457-0.185547 14.3457-0.673828C14.3457-0.839844 14.3164-0.986328 14.2383-1.20117L9.6582-13.3887C9.43359-13.9941 9.0332-14.2871 8.4082-14.2871C7.80273-14.2871 7.39258-13.9941 7.17773-13.3984L2.59766-1.19141C2.51953-0.976562 2.49023-0.830078 2.49023-0.664062C2.49023-0.175781 2.80273 0.126953 3.31055 0.126953ZM6.00586-5.53711L8.37891-12.1094L8.42773-12.1094L10.8008-5.53711Z"/>
  </g>
  <line id="" style="fill:none;stroke:#00AEEF;stroke-width:0.5;opacity:1.0;" x1="792.836" x2="792.836" y1="1919" y2="1933"/>
  <text style="stroke:none;fill:black;font-family:-apple-system,&quot;SF Pro Display&quot;,&quot;SF Pro Text&quot;,Helvetica,sans-serif;font-weight:bold;" transform="matrix(1 0 0 1 776 1953)">Margins</text>
  <text style="stroke:none;fill:black;font-family:-apple-system,&quot;SF Pro Display&quot;,&quot;SF Pro Text&quot;,Helvetica,sans-serif;" transform="matrix(1 0 0 1 776 1971)">Leading and trailing margins on the left and right side of each symbol</text>
  <text style="stroke:none;fill:black;font-family:-apple-system,&quot;SF Pro Display&quot;,&quot;SF Pro Text&quot;,Helvetica,sans-serif;" transform="matrix(1 0 0 1 776 1989)">can be adjusted by modifying the x-location of the margin guidelines.</text>
  <text style="stroke:none;fill:black;font-family:-apple-system,&quot;SF Pro Display&quot;,&quot;SF Pro Text&quot;,Helvetica,sans-serif;" transform="matrix(1 0 0 1 776 2007)">Modifications are automatically applied proportionally to all</text>
  <text style="stroke:none;fill:black;font-family:-apple-system,&quot;SF Pro Display&quot;,&quot;SF Pro Text&quot;,Helvetica,sans-serif;" transform="matrix(1 0 0 1 776 2025)">scales and weights.</text>
  <g id="" transform="matrix(1 0 0 1 1289 1933)">
   <path d="M2.8418 1.86523L4.54102 3.57422C5.40039 4.44336 6.38672 4.38477 7.31445 3.35938L17.4902-7.85156C17.7539-7.76367 18.0273-7.7832 18.3398-7.8418L19.4043-8.03711L20.0684-7.36328L20.0293-6.80664C19.9902-6.30859 20.1172-5.92773 20.6055-5.44922L21.3672-4.70703C21.8457-4.22852 22.4609-4.19922 22.9297-4.66797L25.8398-7.58789C26.3086-8.05664 26.2891-8.65234 25.8105-9.13086L25.0391-9.89258C24.5605-10.3711 24.1895-10.5273 23.7109-10.4883L23.1348-10.4395L22.4902-11.0742L22.7344-12.1973C22.8613-12.7637 22.7051-13.2031 22.1191-13.7891L19.9219-15.9766C16.582-19.2969 12.1484-19.2188 9.25781-16.3281C8.83789-15.918 8.80859-15.3418 9.04297-14.9512C9.27734-14.5898 9.73633-14.3555 10.3809-14.5215C11.8457-14.8633 13.3691-14.9219 14.7949-13.9844L14.209-12.5293C14.0137-12.0508 13.9844-11.6504 14.1113-11.2891L3.04688-0.898438C2.06055 0.0195312 1.98242 0.996094 2.8418 1.86523ZM10.752-15.957C13.1836-17.7344 16.4746-17.4316 18.7012-15.2051L21.1328-12.793C21.3672-12.5586 21.4062-12.373 21.3379-12.0312L21.0156-10.5469L22.5195-9.0625L23.5059-9.12109C23.7598-9.13086 23.8379-9.11133 24.0332-8.91602L24.6094-8.33984L22.168-5.89844L21.5918-6.47461C21.3965-6.66992 21.3672-6.74805 21.377-7.01172L21.4453-7.98828L19.9512-9.47266L18.4277-9.21875C18.1055-9.15039 17.959-9.17969 17.7148-9.41406L15.7129-11.416C15.459-11.6504 15.4297-11.8164 15.5859-12.1875L16.4648-14.2773C14.9023-15.7324 12.8711-16.3574 10.8398-15.7617C10.6836-15.7227 10.625-15.8496 10.752-15.957ZM5.27344 2.30469L4.10156 1.14258C3.63281 0.683594 3.74023 0.341797 4.14062-0.0195312L14.9512-10.1953L16.416-8.71094L6.42578 2.27539C6.07422 2.67578 5.74219 2.77344 5.27344 2.30469Z"/>
  </g>
  <text style="stroke:none;fill:black;font-family:-apple-system,&quot;SF Pro Display&quot;,&quot;SF Pro Text&quot;,Helvetica,sans-serif;font-weight:bold;" transform="matrix(1 0 0 1 1289 1953)">Exporting</text>
  <text style="stroke:none;fill:black;font-family:-apple-system,&quot;SF Pro Display&quot;,&quot;SF Pro Text&quot;,Helvetica,sans-serif;" transform="matrix(1 0 0 1 1289 1971)">Symbols should be outlined when exporting to ensure the</text>
  <text style="stroke:none;fill:black;font-family:-apple-system,&quot;SF Pro Display&quot;,&quot;SF Pro Text&quot;,Helvetica,sans-serif;" transform="matrix(1 0 0 1 1289 1989)">design is preserved when submitting to Xcode.</text>
  <text id="template-version" style="stroke:none;fill:black;font-family:-apple-system,&quot;SF Pro Display&quot;,&quot;SF Pro Text&quot;,Helvetica,sans-serif;text-anchor:end;" transform="matrix(1 0 0 1 3036 1933)">Template v.2.0</text>
  <text style="stroke:none;fill:black;font-family:-apple-system,&quot;SF Pro Display&quot;,&quot;SF Pro Text&quot;,Helvetica,sans-serif;text-anchor:end;" transform="matrix(1 0 0 1 3036 1951)">Requires Xcode 12 or greater</text>
  <text style="stroke:none;fill:black;font-family:-apple-system,&quot;SF Pro Display&quot;,&quot;SF Pro Text&quot;,Helvetica,sans-serif;text-anchor:end;" transform="matrix(1 0 0 1 3036 1969)">Generated from doc.richtext</text>
  <text style="stroke:none;fill:black;font-family:-apple-system,&quot;SF Pro Display&quot;,&quot;SF Pro Text&quot;,Helvetica,sans-serif;text-anchor:end;" transform="matrix(1 0 0 1 3036 1987)">Typeset at 100 points</text>
  <text style="stroke:none;fill:black;font-family:-apple-system,&quot;SF Pro Display&quot;,&quot;SF Pro Text&quot;,Helvetica,sans-serif;" transform="matrix(1 0 0 1 263 726)">Small</text>
  <text style="stroke:none;fill:black;font-family:-apple-system,&quot;SF Pro Display&quot;,&quot;SF Pro Text&quot;,Helvetica,sans-serif;" transform="matrix(1 0 0 1 263 1156)">Medium</text>
  <text style="stroke:none;fill:black;font-family:-apple-system,&quot;SF Pro Display&quot;,&quot;SF Pro Text&quot;,Helvetica,sans-serif;" transform="matrix(1 0 0 1 263 1586)">Large</text>
 </g>
 <g id="Guides">
  <g id="H-reference" style="fill:#27AAE1;stroke:none;" transform="matrix(1 0 0 1 339 696)">
   <path d="M0.976562 0L3.66211 0L12.9883-24.4629L45.752-24.4629L55.127 0L57.7637 0L30.6152-70.459L28.125-70.459ZM29.3457-67.1387L29.4434-67.1387L44.873-26.709L13.8672-26.709Z"/>
  </g>
  <line id="Baseline-S" style="fill:none;stroke:#27AAE1;opacity:1;stroke-width:0.5;" x1="263" x2="3036" y1="696" y2="696"/>
  <line id="Capline-S" style="fill:none;stroke:#27AAE1;opacity:1;stroke-width:0.5;" x1="263" x2="3036" y1="625.541" y2="625.541"/>
  <g id="H-reference" style="fill:#27AAE1;stroke:none;" transform="matrix(1 0 0 1 339 1126)">
   <path d="M0.976562 0L3.66211 0L12.9883-24.4629L45.752-24.4629L55.127 0L57.7637 0L30.6152-70.459L28.125-70.459ZM29.3457-67.1387L29.4434-67.1387L44.873-26.709L13.8672-26.709Z"/>
  </g>
  <line id="Baseline-M" style="fill:none;stroke:#27AAE1;opacity:1;stroke-width:0.5;" x1="263" x2="3036" y1="1126" y2="1126"/>
  <line id="Capline-M" style="fill:none;stroke:#27AAE1;opacity:1;stroke-width:0.5;" x1="263" x2="3036" y1="1055.54" y2="1055.54"/>
  <g id="H-reference" style="fill:#27AAE1;stroke:none;" transform="matrix(1 0 0 1 339 1556)">
   <path d="M0.976562 0L3.66211 0L12.9883-24.4629L45.752-24.4629L55.127 0L57.7637 0L30.6152-70.459L28.125-70.459ZM29.3457-67.1387L29.4434-67.1387L44.873-26.709L13.8672-26.709Z"/>
  </g>
  <line id="Baseline-L" style="fill:none;stroke:#27AAE1;opacity:1;stroke-width:0.5;" x1="263" x2="3036" y1="1556" y2="1556"/>
  <line id="Capline-L" style="fill:none;stroke:#27AAE1;opacity:1;stroke-width:0.5;" x1="263" x2="3036" y1="1485.54" y2="1485.54"/>
  <line id="left-margin" style="fill:none;stroke:#00AEEF;stroke-width:0.5;opacity:1.0;" x1="1396.33" x2="1396.33" y1="1030.79" y2="1150.12"/>
  <line id="right-margin" style="fill:none;stroke:#00AEEF;stroke-width:0.5;opacity:1.0;" x1="1503.36" x2="1503.36" y1="1030.79" y2="1150.12"/>
 </g>
 <g id="Symbols">
  <g id="Black-L" transform="matrix(1 0 0 1 2859.65 1556)">
   <path d="M16.0645 11.3281C16.0645 26.5625 24.707 35.2539 39.8926 35.2539L107.617 35.2539C122.803 35.2539 131.445 26.5625 131.445 11.3281L131.445-81.7383C131.445-96.9727 122.803-105.664 107.617-105.664L39.8926-105.664C24.707-105.664 16.0645-96.9727 16.0645-81.7383ZM36.3281 8.59375L36.3281-79.0039C36.3281-83.252 38.1836-85.4004 42.7246-85.4004L104.785-85.4004C109.326-85.4004 111.23-83.252 111.23-79.0039L111.23 8.59375C111.23 12.8418 109.326 14.9902 104.785 14.9902L42.7246 14.9902C38.1836 14.9902 36.3281 12.8418 36.3281 8.59375ZM50.2441-43.2617C52.6855-43.2617 54.1504-44.4336 54.834-47.168L55.5664-49.8047L64.3555-49.8047L65.1855-47.168C65.918-44.4336 67.1387-43.2617 69.5312-43.2617C72.0215-43.2617 73.584-44.873 73.584-47.2656C73.584-47.998 73.4375-49.0234 73.0957-50.0488L66.8457-68.7012C65.5762-72.3633 63.4277-74.1699 59.8633-74.1699C56.3965-74.1699 54.3457-72.4121 53.125-68.7012L46.8262-50.0488C46.4844-49.0234 46.2891-47.998 46.2891-47.2656C46.2891-44.7754 47.998-43.2617 50.2441-43.2617ZM83.8867-63.3789L96.1426-63.3789C98.6816-63.3789 100.635-65.3809 100.635-67.9688C100.635-70.459 98.6816-72.3633 96.1426-72.3633L83.8867-72.3633C81.25-72.3633 79.3457-70.459 79.3457-67.9688C79.3457-65.3809 81.25-63.3789 83.8867-63.3789ZM57.0312-56.1523L59.7656-66.3574L60.1562-66.3574L62.8906-56.1523ZM83.8867-45.1172L96.1426-45.1172C98.6816-45.1172 100.635-47.1191 100.635-49.707C100.635-52.1973 98.6816-54.1504 96.1426-54.1504L83.8867-54.1504C81.25-54.1504 79.3457-52.1973 79.3457-49.707C79.3457-47.1191 81.25-45.1172 83.8867-45.1172ZM46.9727-1.26953L51.4648-1.26953L57.959-8.05664C58.8379-8.93555 59.8633-9.32617 60.9863-9.32617C62.0117-9.32617 63.0859-8.93555 64.1113-8.05664L68.457-4.15039L79.1504-13.6719C80.2734-14.6973 81.4941-15.1367 82.666-15.1367C84.0332-15.1367 85.2539-14.6973 86.1816-13.6719L96.1914-1.95312L100.635-1.95312L100.635-26.5625C100.635-31.3477 98.1445-33.9355 93.3105-33.9355L54.4434-33.9355C49.7559-33.9355 46.9727-31.3477 46.9727-26.5625ZM64.5508-13.5742C61.4746-13.5742 58.9355-16.2109 58.8867-19.2871C58.7891-22.3145 61.4746-25 64.5508-24.9023C67.627-24.7559 70.166-22.3145 70.166-19.2871C70.166-16.2109 67.627-13.5742 64.5508-13.5742Z"/>
  </g>
  <g id="Heavy-L" transform="matrix(1 0 0 1 2564.18 1556)">
   <path d="M16.0645 11.7188C16.0645 26.3672 24.1211 34.4727 38.7207 34.4727L106.348 34.4727C120.898 34.4727 128.955 26.3672 128.955 11.7188L128.955-82.1777C128.955-96.7773 120.898-104.932 106.348-104.932L38.7207-104.932C24.1211-104.932 16.0645-96.7773 16.0645-82.1777ZM33.5938 9.61914L33.5938-80.0293C33.5938-84.8633 35.8887-87.4023 41.0156-87.4023L104.053-87.4023C109.18-87.4023 111.475-84.8633 111.475-80.0293L111.475 9.61914C111.475 14.4531 109.18 16.9922 104.053 16.9922L41.0156 16.9922C35.8887 16.9922 33.5938 14.4531 33.5938 9.61914ZM47.6074-43.3594C49.8047-43.3594 51.1719-44.3848 51.8066-46.9238L52.9785-50.5859L62.5977-50.5859L63.8672-46.9238C64.5508-44.4336 65.7227-43.3594 67.8711-43.3594C70.2148-43.3594 71.6797-44.8242 71.6797-47.0703C71.6797-47.7051 71.4844-48.6328 71.1914-49.6094L64.0625-70.166C62.9395-73.4863 60.9863-75.1465 57.7148-75.1465C54.541-75.1465 52.6855-73.5352 51.5137-70.166L44.3848-49.6094C44.0918-48.6816 43.8965-47.7051 43.8965-47.0703C43.8965-44.7266 45.459-43.3594 47.6074-43.3594ZM82.1777-64.3555L96.5332-64.3555C98.9258-64.3555 100.781-66.2598 100.781-68.7012C100.781-71.0449 98.9258-72.8516 96.5332-72.8516L82.1777-72.8516C79.6875-72.8516 77.832-71.0449 77.832-68.7012C77.832-66.2598 79.6875-64.3555 82.1777-64.3555ZM54.4434-56.543L57.6172-67.627L57.959-67.627L61.1816-56.543ZM82.1777-45.2148L96.5332-45.2148C98.9258-45.2148 100.781-47.1191 100.781-49.5117C100.781-51.9043 98.9258-53.7109 96.5332-53.7109L82.1777-53.7109C79.6875-53.7109 77.832-51.9043 77.832-49.5117C77.832-47.1191 79.6875-45.2148 82.1777-45.2148ZM44.2383 0.927734L48.584 0.927734L55.6641-6.34766C56.6406-7.27539 57.7637-7.71484 58.8867-7.71484C59.9609-7.71484 61.1816-7.27539 62.2559-6.34766L66.7969-2.19727L78.1738-12.3047C79.3945-13.3789 80.6641-13.8672 81.9824-13.8672C83.3496-13.8672 84.7168-13.3789 85.6934-12.2559L96.5332 0.292969L100.83 0.292969L100.83-25.9766C100.83-30.957 98.291-33.5449 93.2617-33.5449L51.9043-33.5449C47.0703-33.5449 44.2383-30.957 44.2383-25.9766ZM62.6953-12.2559C59.4238-12.2559 56.6895-14.9902 56.6895-18.2617C56.6406-21.5332 59.4238-24.3164 62.6953-24.2188C65.9668-24.1211 68.6523-21.5332 68.6523-18.2617C68.6523-14.9902 65.9668-12.2559 62.6953-12.2559Z"/>
  </g>
  <g id="Bold-L" transform="matrix(1 0 0 1 2268.86 1556)">
   <path d="M16.0645 12.207C16.0645 26.123 23.5352 33.6426 37.4023 33.6426L104.883 33.6426C118.701 33.6426 126.172 26.123 126.172 12.207L126.172-82.6172C126.172-96.5332 118.701-104.053 104.883-104.053L37.4023-104.053C23.5352-104.053 16.0645-96.5332 16.0645-82.6172ZM30.5176 10.7422L30.5176-81.1523C30.5176-86.6699 33.252-89.6484 39.0625-89.6484L103.223-89.6484C108.984-89.6484 111.719-86.6699 111.719-81.1523L111.719 10.7422C111.719 16.2598 108.984 19.1895 103.223 19.1895L39.0625 19.1895C33.252 19.1895 30.5176 16.2598 30.5176 10.7422ZM44.6777-43.4082C46.6309-43.4082 47.8516-44.3848 48.3887-46.6797L50.0977-51.5137L60.6445-51.5137L62.4023-46.6797C62.9883-44.3848 64.1113-43.4082 66.0156-43.4082C68.2129-43.4082 69.4824-44.7266 69.4824-46.8262C69.4824-47.4121 69.3359-48.2422 69.0918-49.1211L60.9863-71.8262C59.9609-74.7559 58.2031-76.2207 55.3223-76.2207C52.4902-76.2207 50.7812-74.8047 49.8047-71.8262L41.6504-49.1211C41.4062-48.2422 41.2109-47.4121 41.2109-46.8262C41.2109-44.6777 42.627-43.4082 44.6777-43.4082ZM80.2246-65.4785L96.9727-65.4785C99.2188-65.4785 100.928-67.2363 100.928-69.4824C100.928-71.6797 99.2188-73.3887 96.9727-73.3887L80.2246-73.3887C77.9297-73.3887 76.2207-71.6797 76.2207-69.4824C76.2207-67.2363 77.9297-65.4785 80.2246-65.4785ZM51.5137-57.0312L55.1758-69.043L55.5176-69.043L59.2773-57.0312ZM80.2246-45.3125L96.9727-45.3125C99.2188-45.3125 100.928-47.1191 100.928-49.3652C100.928-51.5137 99.2188-53.2227 96.9727-53.2227L80.2246-53.2227C77.9297-53.2227 76.2207-51.5137 76.2207-49.3652C76.2207-47.1191 77.9297-45.3125 80.2246-45.3125ZM41.1621 3.36914L45.3613 3.36914L53.125-4.39453C54.1504-5.46875 55.3711-5.9082 56.543-5.9082C57.7148-5.9082 58.9844-5.41992 60.1074-4.39453L64.9902-0.0488281L77.0508-10.7422C78.3691-11.9141 79.7852-12.4512 81.1523-12.4512C82.6172-12.4512 84.1309-11.9629 85.2051-10.7422L96.9238 2.7832L101.074 2.7832L101.074-25.3418C101.074-30.5176 98.4375-33.2031 93.2129-33.2031L49.1211-33.2031C44.0918-33.2031 41.1621-30.5176 41.1621-25.3418ZM60.5957-10.6934C57.1289-10.6934 54.248-13.6719 54.1992-17.0898C54.1992-20.6055 57.1289-23.584 60.5957-23.4863C64.1113-23.3887 66.9434-20.6055 66.9434-17.0898C66.9434-13.6719 64.1113-10.6934 60.5957-10.6934Z"/>
  </g>
  <g id="Semibold-L" transform="matrix(1 0 0 1 1973.1 1556)">
   <path d="M16.0645 12.5C16.0645 25.9766 23.0957 33.0566 36.4746 33.0566L103.857 33.0566C117.188 33.0566 124.268 25.9766 124.268 12.5L124.268-82.9102C124.268-96.3867 117.188-103.516 103.857-103.516L36.4746-103.516C23.0957-103.516 16.0645-96.3867 16.0645-82.9102ZM28.418 11.5234L28.418-81.9336C28.418-87.9395 31.4453-91.1621 37.6953-91.1621L102.637-91.1621C108.838-91.1621 111.914-87.9395 111.914-81.9336L111.914 11.5234C111.914 17.5293 108.838 20.752 102.637 20.752L37.6953 20.752C31.4453 20.752 28.418 17.5293 28.418 11.5234ZM42.6758-43.457C44.4336-43.457 45.5566-44.3359 46.0938-46.4844L48.0957-52.1484L59.2773-52.1484L61.377-46.4844C61.9629-44.3848 62.9883-43.457 64.6973-43.457C66.7969-43.457 68.0176-44.6777 68.0176-46.6309C68.0176-47.168 67.8711-47.9492 67.627-48.7793L58.8379-72.9492C57.9102-75.6348 56.2988-76.9531 53.6621-76.9531C51.0742-76.9531 49.5117-75.6836 48.584-72.9492L39.7949-48.7793C39.5508-47.998 39.4043-47.168 39.4043-46.6309C39.4043-44.6289 40.6738-43.457 42.6758-43.457ZM78.9062-66.2598L97.2656-66.2598C99.4141-66.2598 101.074-67.9199 101.074-70.0684C101.074-72.1191 99.4141-73.7305 97.2656-73.7305L78.9062-73.7305C76.709-73.7305 75.0977-72.1191 75.0977-70.0684C75.0977-67.9199 76.709-66.2598 78.9062-66.2598ZM49.4629-57.373L53.5156-70.0195L53.8574-70.0195L57.959-57.373ZM78.9062-45.4102L97.2656-45.4102C99.4141-45.4102 101.074-47.0703 101.074-49.2188C101.074-51.2695 99.4141-52.8809 97.2656-52.8809L78.9062-52.8809C76.709-52.8809 75.0977-51.2695 75.0977-49.2188C75.0977-47.0703 76.709-45.4102 78.9062-45.4102ZM39.0625 5.07812L43.1152 5.07812L51.3184-3.07617C52.4902-4.19922 53.7109-4.6875 54.9316-4.6875C56.1523-4.6875 57.5195-4.15039 58.6914-3.07617L63.6719 1.46484L76.3184-9.66797C77.6855-10.8887 79.1504-11.4746 80.6152-11.4746C82.1289-11.4746 83.6914-10.9375 84.8633-9.66797L97.2168 4.49219L101.27 4.49219L101.27-24.9023C101.27-30.1758 98.5352-32.9102 93.2129-32.9102L47.2168-32.9102C42.041-32.9102 39.0625-30.1758 39.0625-24.9023ZM59.1797-9.66797C55.5176-9.66797 52.5391-12.7441 52.4902-16.3086C52.4902-19.9707 55.5176-23.0469 59.1797-22.9492C62.793-22.8516 65.8203-19.9707 65.8203-16.3086C65.8203-12.7441 62.793-9.66797 59.1797-9.66797Z"/>
  </g>
  <g id="Medium-L" transform="matrix(1 0 0 1 1677.12 1556)">
   <path d="M16.0645 12.7441C16.0645 25.8789 22.8027 32.666 35.791 32.666L103.076 32.666C116.064 32.666 122.803 25.8789 122.803 12.7441L122.803-83.1543C122.803-96.2402 116.064-103.076 103.076-103.076L35.791-103.076C22.8027-103.076 16.0645-96.2402 16.0645-83.1543ZM26.8066 12.1094L26.8066-82.5684C26.8066-88.8672 30.127-92.334 36.6699-92.334L102.197-92.334C108.74-92.334 112.061-88.8672 112.061-82.5684L112.061 12.1094C112.061 18.457 108.74 21.9238 102.197 21.9238L36.6699 21.9238C30.127 21.9238 26.8066 18.457 26.8066 12.1094ZM41.1133-43.5059C42.7734-43.5059 43.7988-44.3359 44.2871-46.3379L46.582-52.5879L58.3008-52.5879L60.5957-46.3379C61.1328-44.3848 62.1582-43.5059 63.7207-43.5059C65.7227-43.5059 66.8945-44.6289 66.8945-46.4844C66.8945-47.0215 66.748-47.7051 66.5039-48.5352L57.2266-73.8281C56.3477-76.3184 54.8828-77.5391 52.3926-77.5391C50-77.5391 48.5352-76.3184 47.6562-73.8281L38.3789-48.5352C38.1348-47.7539 37.9883-47.0215 37.9883-46.4844C37.9883-44.6289 39.209-43.5059 41.1133-43.5059ZM77.8809-66.8457L97.5098-66.8457C99.6094-66.8457 101.123-68.457 101.123-70.5078C101.123-72.4609 99.6094-74.0234 97.5098-74.0234L77.8809-74.0234C75.7812-74.0234 74.2188-72.4609 74.2188-70.5078C74.2188-68.457 75.7812-66.8457 77.8809-66.8457ZM47.9492-57.6172L52.2461-70.752L52.5879-70.752L56.9336-57.6172ZM77.8809-45.459L97.5098-45.459C99.6094-45.459 101.123-47.0703 101.123-49.1211C101.123-51.0742 99.6094-52.6367 97.5098-52.6367L77.8809-52.6367C75.7812-52.6367 74.2188-51.0742 74.2188-49.1211C74.2188-47.0703 75.7812-45.459 77.8809-45.459ZM37.5 6.34766L41.4551 6.34766L50-2.09961C51.1719-3.22266 52.4414-3.71094 53.7109-3.71094C54.9805-3.71094 56.3965-3.22266 57.5684-2.09961L62.7441 2.58789L75.7324-8.83789C77.1973-10.1074 78.7109-10.7422 80.1758-10.7422C81.7383-10.7422 83.3984-10.2051 84.5703-8.83789L97.4609 5.81055L101.367 5.81055L101.367-24.5605C101.367-29.9316 98.6328-32.7148 93.2129-32.7148L45.752-32.7148C40.4785-32.7148 37.5-29.9316 37.5-24.5605ZM58.0566-8.88672C54.2969-8.88672 51.2207-12.0117 51.2207-15.7227C51.2207-19.4824 54.2969-22.6562 58.0566-22.5586C61.8164-22.4609 64.9414-19.4824 64.9414-15.7227C64.9414-12.0117 61.8164-8.88672 58.0566-8.88672Z"/>
  </g>
  <g id="Regular-L" transform="matrix(1 0 0 1 1381.36 1556)">
   <path d="M16.0645 13.0859C16.0645 25.6836 22.3633 32.0801 34.8633 32.0801L102.1 32.0801C114.6 32.0801 120.898 25.6836 120.898 13.0859L120.898-83.4961C120.898-96.0938 114.6-102.49 102.1-102.49L34.8633-102.49C22.3633-102.49 16.0645-96.0938 16.0645-83.4961ZM24.707 12.8906L24.707-83.3008C24.707-90.1367 28.3203-93.8477 35.3516-93.8477L101.611-93.8477C108.643-93.8477 112.256-90.1367 112.256-83.3008L112.256 12.8906C112.256 19.7266 108.643 23.4375 101.611 23.4375L35.3516 23.4375C28.3203 23.4375 24.707 19.7266 24.707 12.8906ZM39.1113-43.5547C40.5762-43.5547 41.5039-44.2871 41.9922-46.1426L44.5801-53.2227L56.9336-53.2227L59.5703-46.1426C60.0586-44.3359 61.0352-43.5547 62.4512-43.5547C64.3555-43.5547 65.4297-44.5801 65.4297-46.3379C65.4297-46.7773 65.2832-47.4609 65.0391-48.1934L55.127-74.9512C54.3457-77.1484 52.9785-78.2715 50.7324-78.2715C48.584-78.2715 47.2656-77.1484 46.4355-74.9512L36.5234-48.1934C36.2793-47.5098 36.1816-46.7773 36.1816-46.3379C36.1816-44.5801 37.2559-43.5547 39.1113-43.5547ZM76.5625-67.627L97.8516-67.627C99.8047-67.627 101.27-69.1406 101.27-71.0449C101.27-72.9004 99.8047-74.3652 97.8516-74.3652L76.5625-74.3652C74.5605-74.3652 73.0957-72.9004 73.0957-71.0449C73.0957-69.1406 74.5605-67.627 76.5625-67.627ZM45.9473-57.959L50.5859-71.7285L50.9277-71.7285L55.6152-57.959ZM76.5625-45.5566L97.8516-45.5566C99.8047-45.5566 101.27-47.0703 101.27-48.9746C101.27-50.8301 99.8047-52.2949 97.8516-52.2949L76.5625-52.2949C74.5605-52.2949 73.0957-50.8301 73.0957-48.9746C73.0957-47.0703 74.5605-45.5566 76.5625-45.5566ZM35.4004 8.00781L39.2578 8.00781L48.2422-0.78125C49.5117-1.95312 50.8301-2.49023 52.0996-2.49023C53.4668-2.49023 54.8828-1.95312 56.1523-0.78125L61.4746 4.05273L74.9512-7.8125C76.5137-9.13086 78.0762-9.76562 79.6387-9.76562C81.25-9.76562 83.0078-9.17969 84.2285-7.76367L97.7051 7.51953L101.562 7.51953L101.562-24.1211C101.562-29.6387 98.7305-32.4707 93.1641-32.4707L43.8477-32.4707C38.4277-32.4707 35.4004-29.6387 35.4004-24.1211ZM56.6406-7.86133C52.7344-7.86133 49.5605-11.084 49.5605-14.9414C49.5605-18.8477 52.7344-22.168 56.6406-22.0703C60.5469-21.9727 63.7695-18.8477 63.7695-14.9414C63.7695-11.084 60.5469-7.86133 56.6406-7.86133Z"/>
  </g>
  <g id="Light-L" transform="matrix(1 0 0 1 1085.43 1556)">
   <path d="M16.0645 13.7695C16.0645 25.6836 22.1191 31.7871 33.9355 31.7871L101.514 31.7871C113.281 31.7871 119.336 25.6836 119.336 13.7695L119.336-84.1309C119.336-95.9961 113.281-102.1 101.514-102.1L33.9355-102.1C22.1191-102.1 16.0645-95.9961 16.0645-84.1309ZM22.7051 13.623L22.7051-83.9844C22.7051-91.4551 26.6113-95.5078 34.2773-95.5078L101.172-95.5078C108.789-95.5078 112.744-91.4551 112.744-83.9844L112.744 13.623C112.744 21.1426 108.789 25.1465 101.172 25.1465L34.2773 25.1465C26.6113 25.1465 22.7051 21.1426 22.7051 13.623ZM37.0605-44.7754C38.1836-44.7754 38.916-45.3613 39.3555-46.7773L42.4805-55.0293L55.5664-55.0293L58.7402-46.7773C59.1309-45.4102 59.9121-44.7754 61.0352-44.7754C62.5488-44.7754 63.4277-45.6543 63.4277-47.0215C63.4277-47.4121 63.3301-47.9492 63.1348-48.4863L52.3438-76.8066C51.7578-78.4668 50.6836-79.2969 49.0234-79.2969C47.4121-79.2969 46.3379-78.4668 45.752-76.8066L34.9121-48.4863C34.7656-47.998 34.6191-47.4121 34.6191-47.0215C34.6191-45.6543 35.5469-44.7754 37.0605-44.7754ZM74.9023-69.043L98.9258-69.043C100.488-69.043 101.709-70.2637 101.709-71.7773C101.709-73.291 100.488-74.5117 98.9258-74.5117L74.9023-74.5117C73.291-74.5117 72.1191-73.291 72.1191-71.7773C72.1191-70.2637 73.291-69.043 74.9023-69.043ZM43.75-59.082L48.9258-73.5352L49.1211-73.5352L54.3457-59.082ZM74.9023-46.875L98.9258-46.875C100.488-46.875 101.709-48.0957 101.709-49.6094C101.709-51.123 100.488-52.2949 98.9258-52.2949L74.9023-52.2949C73.291-52.2949 72.1191-51.123 72.1191-49.6094C72.1191-48.0957 73.291-46.875 74.9023-46.875ZM33.2031 8.69141L36.2793 8.69141L46.1914-0.683594C47.6074-1.95312 49.0234-2.58789 50.3418-2.58789C51.7578-2.58789 53.3203-1.9043 54.6387-0.683594L60.1562 4.3457L74.4141-8.05664C76.0742-9.47266 77.832-10.2051 79.3945-10.2051C81.1523-10.2051 83.0566-9.57031 84.4238-8.00781L99.1211 8.39844L102.197 8.39844L102.197-25.293C102.197-30.8594 99.4141-33.5938 93.8477-33.5938L41.6016-33.5938C36.1328-33.5938 33.2031-30.8594 33.2031-25.293ZM55.1758-8.1543C51.0254-8.1543 47.6562-11.5723 47.6562-15.6738C47.6562-19.8242 51.0254-23.291 55.1758-23.2422C59.2773-23.1445 62.6953-19.8242 62.6953-15.6738C62.6953-11.5723 59.2773-8.1543 55.1758-8.1543Z"/>
  </g>
  <g id="Thin-L" transform="matrix(1 0 0 1 789.747 1556)">
   <path d="M16.0645 14.7461C16.0645 25.6348 21.7773 31.3477 32.666 31.3477L100.732 31.3477C111.572 31.3477 117.285 25.6348 117.285 14.7461L117.285-84.9609C117.285-95.8496 111.572-101.611 100.732-101.611L32.666-101.611C21.7773-101.611 16.0645-95.8496 16.0645-84.9609ZM19.9707 14.5996L19.9707-84.8145C19.9707-93.2617 24.3652-97.6562 32.8613-97.6562L100.537-97.6562C108.984-97.6562 113.379-93.2617 113.379-84.8145L113.379 14.5996C113.379 22.998 108.984 27.4414 100.537 27.4414L32.8613 27.4414C24.3652 27.4414 19.9707 22.998 19.9707 14.5996ZM34.3262-46.4355C35.0098-46.4355 35.5469-46.7773 35.791-47.6074L39.6484-57.4707L53.7598-57.4707L57.6172-47.6074C57.9102-46.8262 58.4473-46.4355 59.1309-46.4355C60.2051-46.4355 60.8398-47.0215 60.8398-47.9492C60.8398-48.2422 60.7422-48.584 60.6445-48.9258L48.6328-79.3457C48.3398-80.1758 47.6562-80.6641 46.7285-80.6641C45.8496-80.6641 45.1172-80.1758 44.7754-79.3457L32.8125-48.9258C32.7148-48.6328 32.6172-48.2422 32.6172-47.9492C32.6172-47.0215 33.252-46.4355 34.3262-46.4355ZM40.8203-60.5957L46.6797-75.9766L46.7773-75.9766L52.6367-60.5957ZM72.7051-70.9473L100.342-70.9473C101.465-70.9473 102.295-71.7773 102.295-72.8027C102.295-73.8281 101.465-74.6582 100.342-74.6582L72.7051-74.6582C71.582-74.6582 70.8008-73.8281 70.8008-72.8027C70.8008-71.7773 71.582-70.9473 72.7051-70.9473ZM72.7051-48.6328L100.342-48.6328C101.465-48.6328 102.295-49.4629 102.295-50.4883C102.295-51.5137 101.465-52.2949 100.342-52.2949L72.7051-52.2949C71.582-52.2949 70.8008-51.5137 70.8008-50.4883C70.8008-49.4629 71.582-48.6328 72.7051-48.6328ZM30.3223 9.61914L32.373 9.61914L43.5547-0.537109C45.1172-1.95312 46.6309-2.68555 48.0469-2.68555C49.5605-2.68555 51.2207-1.9043 52.6367-0.537109L58.4473 4.73633L73.6816-8.39844C75.5371-9.96094 77.4414-10.7422 79.1016-10.7422C81.0059-10.7422 83.1055-10.0586 84.668-8.34961L100.977 9.52148L103.027 9.52148L103.027-26.9043C103.027-32.4219 100.293-35.1074 94.7266-35.1074L38.623-35.1074C33.1055-35.1074 30.3223-32.4219 30.3223-26.9043ZM53.1738-8.59375C48.7305-8.59375 45.1172-12.2559 45.1172-16.6992C45.1172-21.0938 48.7305-24.7559 53.1738-24.7559C57.6172-24.707 61.2305-21.0938 61.2305-16.6992C61.2305-12.2559 57.6172-8.59375 53.1738-8.59375Z"/>
  </g>
  <g id="Ultralight-L" transform="matrix(1 0 0 1 493.549 1556)">
   <path d="M16.0645 15.2344C16.0645 25.5859 21.6309 31.1523 31.9824 31.1523L100.293 31.1523C110.693 31.1523 116.26 25.5859 116.26 15.2344L116.26-85.4004C116.26-95.8008 110.693-101.318 100.293-101.318L31.9824-101.318C21.6309-101.318 16.0645-95.8008 16.0645-85.4004ZM18.6035 15.0879L18.6035-85.2539C18.6035-94.1895 23.2422-98.7793 32.1289-98.7793L100.195-98.7793C109.082-98.7793 113.672-94.1895 113.672-85.2539L113.672 15.0879C113.672 23.9746 109.082 28.5645 100.195 28.5645L32.1289 28.5645C23.2422 28.5645 18.6035 23.9746 18.6035 15.0879ZM32.9102-47.2656C33.3496-47.2656 33.7891-47.5098 34.0332-47.998L38.2324-58.6914L52.832-58.6914L57.0312-47.998C57.2754-47.5098 57.666-47.2656 58.1543-47.2656C58.9844-47.2656 59.4727-47.7539 59.4727-48.4375C59.4727-48.6816 59.4238-48.9258 59.375-49.1211L46.7773-80.6152C46.582-81.0547 46.0938-81.3477 45.5566-81.3477C45.0195-81.3477 44.4824-81.0547 44.2871-80.6152L31.6895-49.1211C31.6406-48.9258 31.543-48.6816 31.543-48.4375C31.543-47.7539 32.0801-47.2656 32.9102-47.2656ZM39.3066-61.377L45.5078-77.1973L45.5566-77.1973L51.7578-61.377ZM71.582-71.9238L101.123-71.9238C101.953-71.9238 102.588-72.5586 102.588-73.291C102.588-74.0723 101.953-74.707 101.123-74.707L71.582-74.707C70.752-74.707 70.1172-74.0723 70.1172-73.291C70.1172-72.5586 70.752-71.9238 71.582-71.9238ZM71.582-49.5605L101.123-49.5605C101.953-49.5605 102.588-50.1465 102.588-50.9277C102.588-51.709 101.953-52.2949 101.123-52.2949L71.582-52.2949C70.752-52.2949 70.1172-51.709 70.1172-50.9277C70.1172-50.1465 70.752-49.5605 71.582-49.5605ZM28.8574 10.0586L30.3711 10.0586L42.1875-0.488281C43.8477-1.95312 45.4102-2.73438 46.875-2.73438C48.3887-2.73438 50.1465-1.9043 51.6113-0.488281L57.5195 4.98047L73.291-8.59375C75.293-10.2051 77.2461-11.0352 78.9551-11.0352C80.9082-11.0352 83.1543-10.3027 84.8145-8.49609L101.953 10.1074L103.467 10.1074L103.467-27.6855C103.467-33.252 100.732-35.8887 95.166-35.8887L37.1094-35.8887C31.543-35.8887 28.8574-33.252 28.8574-27.6855ZM52.1484-8.83789C47.6074-8.83789 43.8477-12.5977 43.8477-17.1875C43.8477-21.7285 47.6074-25.4883 52.1484-25.4883C56.7383-25.5371 60.498-21.7285 60.498-17.1875C60.498-12.5977 56.7383-8.83789 52.1484-8.83789Z"/>
  </g>
  <g id="Black-M" transform="matrix(1 0 0 1 2874.98 1126)">
   <path d="M12.4512 0.683594C12.4512 12.9395 19.7266 20.2148 31.9824 20.2148L84.8633 20.2148C97.1191 20.2148 104.395 12.9395 104.395 0.683594L104.395-71.0938C104.395-83.3496 97.1191-90.625 84.8633-90.625L31.9824-90.625C19.7266-90.625 12.4512-83.3496 12.4512-71.0938ZM30.7617-2.24609L30.7617-68.1641C30.7617-70.9961 31.8359-72.3145 34.9121-72.3145L81.9336-72.3145C85.0098-72.3145 86.1328-70.9961 86.1328-68.1641L86.1328-2.24609C86.1328 0.585938 85.0098 1.9043 81.9336 1.9043L34.9121 1.9043C31.8359 1.9043 30.7617 0.585938 30.7617-2.24609ZM41.4062-42.041C43.4082-42.041 44.6289-42.9688 45.1172-45.166L45.4102-46.3867L51.4648-46.3867L51.8066-45.166C52.4414-42.9688 53.3691-42.041 55.3711-42.041C57.3242-42.041 58.5938-43.3594 58.5938-45.2148C58.5938-45.8496 58.4473-46.6797 58.2031-47.4609L54.0039-60.1562C53.0273-63.1836 51.2695-64.6973 48.3887-64.6973C45.5566-64.6973 43.8965-63.2324 42.8711-60.1562L38.7207-47.4609C38.4277-46.6797 38.2812-45.8496 38.2812-45.2148C38.2812-43.2129 39.6973-42.041 41.4062-42.041ZM66.5039-56.4453L74.5117-56.4453C76.5137-56.4453 78.0273-58.0078 78.0273-60.0098C78.0273-61.9629 76.5137-63.4277 74.5117-63.4277L66.5039-63.4277C64.4043-63.4277 62.9395-61.9629 62.9395-60.0098C62.9395-58.0078 64.4043-56.4453 66.5039-56.4453ZM46.5332-51.4648L48.3398-58.6426L48.584-58.6426L50.3418-51.4648ZM66.5039-43.457L74.5117-43.457C76.5137-43.457 78.0273-45.0195 78.0273-47.0215C78.0273-48.9746 76.5137-50.4395 74.5117-50.4395L66.5039-50.4395C64.4043-50.4395 62.9395-48.9746 62.9395-47.0215C62.9395-45.0195 64.4043-43.457 66.5039-43.457ZM38.916-11.4746L42.1875-11.4746L46.9727-16.4551C47.5586-17.041 48.3398-17.3828 49.1211-17.3828C49.8535-17.3828 50.6836-17.041 51.416-16.4551L54.5898-13.5742L62.4023-20.5078C63.1836-21.2891 64.0625-21.582 64.9414-21.582C65.918-21.582 66.7969-21.2891 67.4805-20.5078L74.8047-11.9629L78.0273-11.9629L78.0273-29.9316C78.0273-33.4473 76.2207-35.3027 72.7051-35.3027L44.3359-35.3027C40.918-35.3027 38.916-33.4473 38.916-29.9316ZM51.709-20.459C49.5117-20.459 47.6562-22.4121 47.5586-24.6094C47.5098-26.8555 49.5117-28.7598 51.709-28.7109C53.9551-28.6621 55.8105-26.8555 55.8105-24.6094C55.8105-22.4121 53.9551-20.459 51.709-20.459Z"/>
  </g>
  <g id="Heavy-M" transform="matrix(1 0 0 1 2579.41 1126)">
   <path d="M12.4512 0.927734C12.4512 12.7441 19.1895 19.4824 30.957 19.4824L83.5938 19.4824C95.3125 19.4824 102.1 12.7441 102.1 0.927734L102.1-71.3379C102.1-83.1055 95.3125-89.8926 83.5938-89.8926L30.957-89.8926C19.1895-89.8926 12.4512-83.1055 12.4512-71.3379ZM28.2715-1.31836L28.2715-69.0918C28.2715-72.4121 29.7363-74.0723 33.3008-74.0723L81.25-74.0723C84.8145-74.0723 86.2793-72.4121 86.2793-69.0918L86.2793-1.31836C86.2793 2.00195 84.8145 3.66211 81.25 3.66211L33.3008 3.66211C29.7363 3.66211 28.2715 2.00195 28.2715-1.31836ZM39.0625-41.7969C40.8691-41.7969 42.041-42.6758 42.5293-44.7266L43.1641-46.8262L49.9512-46.8262L50.5859-44.7266C51.1719-42.6758 52.0996-41.7969 53.9551-41.7969C55.8105-41.7969 56.9824-43.0176 56.9824-44.8242C56.9824-45.3613 56.8359-46.1426 56.6406-46.9238L51.709-61.2793C50.7812-64.0625 49.1699-65.4785 46.4844-65.4785C43.8477-65.4785 42.2852-64.1113 41.3574-61.2793L36.4746-46.9238C36.2305-46.1426 36.0352-45.3613 36.0352-44.8242C36.0352-42.9199 37.4023-41.7969 39.0625-41.7969ZM65.0391-57.1777L74.707-57.1777C76.6113-57.1777 78.0762-58.6914 78.0762-60.5957C78.0762-62.5 76.6113-63.916 74.707-63.916L65.0391-63.916C63.0371-63.916 61.5723-62.5 61.5723-60.5957C61.5723-58.6914 63.0371-57.1777 65.0391-57.1777ZM44.2871-51.6602L46.3867-59.5215L46.6797-59.5215L48.8281-51.6602ZM65.0391-43.2129L74.707-43.2129C76.6113-43.2129 78.0762-44.7266 78.0762-46.6797C78.0762-48.5352 76.6113-50 74.707-50L65.0391-50C63.0371-50 61.5723-48.5352 61.5723-46.6797C61.5723-44.7266 63.0371-43.2129 65.0391-43.2129ZM36.4746-9.27734L39.7949-9.27734L44.9707-14.5996C45.6543-15.2832 46.4355-15.5762 47.3145-15.5762C48.0957-15.5762 48.9746-15.2832 49.7559-14.5996L53.125-11.5234L61.4746-18.9453C62.3535-19.7266 63.2812-20.0684 64.209-20.0684C65.2344-20.0684 66.2109-19.7754 66.9434-18.9453L74.8047-9.76562L78.0762-9.76562L78.0762-29.0039C78.0762-32.666 76.2207-34.6191 72.5098-34.6191L42.1875-34.6191C38.623-34.6191 36.4746-32.666 36.4746-29.0039ZM50.0977-18.8965C47.7051-18.8965 45.7031-20.9473 45.6543-23.3398C45.6055-25.7324 47.7051-27.7832 50.0977-27.6855C52.4902-27.6367 54.4434-25.7324 54.4434-23.3398C54.4434-20.9473 52.4902-18.8965 50.0977-18.8965Z"/>
  </g>
  <g id="Bold-M" transform="matrix(1 0 0 1 2284 1126)">
   <path d="M12.4512 1.2207C12.4512 12.5 18.6035 18.6523 29.7852 18.6523L82.1777 18.6523C93.3105 18.6523 99.5117 12.5 99.5117 1.2207L99.5117-71.6797C99.5117-82.8613 93.3105-89.1113 82.1777-89.1113L29.7852-89.1113C18.6035-89.1113 12.4512-82.8613 12.4512-71.6797ZM25.5371-0.292969L25.5371-70.1172C25.5371-73.9746 27.3926-76.0254 31.4453-76.0254L80.4688-76.0254C84.5703-76.0254 86.4258-73.9746 86.4258-70.1172L86.4258-0.292969C86.4258 3.56445 84.5703 5.56641 80.4688 5.56641L31.4453 5.56641C27.3926 5.56641 25.5371 3.56445 25.5371-0.292969ZM36.4258-41.5039C38.0859-41.5039 39.1602-42.334 39.5996-44.2383L40.5762-47.2656L48.1934-47.2656L49.2676-44.2383C49.7559-42.334 50.6836-41.5039 52.2949-41.5039C54.1016-41.5039 55.1758-42.627 55.1758-44.3359C55.1758-44.8242 55.0781-45.5566 54.834-46.2891L49.1699-62.5488C48.291-65.0879 46.8262-66.3574 44.3359-66.3574C41.9434-66.3574 40.5273-65.1367 39.6484-62.5488L33.9844-46.2891C33.7402-45.5566 33.5938-44.8242 33.5938-44.3359C33.5938-42.5781 34.8145-41.5039 36.4258-41.5039ZM63.3789-57.959L74.8535-57.959C76.709-57.959 78.125-59.4238 78.125-61.2793C78.125-63.0859 76.709-64.4531 74.8535-64.4531L63.3789-64.4531C61.4746-64.4531 60.0586-63.0859 60.0586-61.2793C60.0586-59.4238 61.4746-57.959 63.3789-57.959ZM41.6992-51.8066L44.2383-60.5469L44.5312-60.5469L47.1191-51.8066ZM63.3789-42.9688L74.8535-42.9688C76.709-42.9688 78.125-44.4336 78.125-46.2891C78.125-48.0469 76.709-49.4629 74.8535-49.4629L63.3789-49.4629C61.4746-49.4629 60.0586-48.0469 60.0586-46.2891C60.0586-44.4336 61.4746-42.9688 63.3789-42.9688ZM33.7891-6.78711L37.1582-6.78711L42.7246-12.5C43.5059-13.2812 44.3848-13.5742 45.2637-13.5742C46.1426-13.5742 47.0703-13.2324 47.9004-12.5L51.4648-9.27734L60.4004-17.1875C61.377-18.0176 62.3535-18.4082 63.3789-18.4082C64.502-18.4082 65.5273-18.0664 66.3574-17.1875L74.8535-7.27539L78.1738-7.27539L78.1738-27.9297C78.1738-31.8359 76.1719-33.8379 72.2656-33.8379L39.7949-33.8379C36.0352-33.8379 33.7891-31.8359 33.7891-27.9297ZM48.2422-17.1387C45.6543-17.1387 43.5547-19.3359 43.5059-21.875C43.5059-24.4141 45.6543-26.6113 48.2422-26.5625C50.8301-26.4648 52.9297-24.4141 52.9297-21.875C52.9297-19.3359 50.8301-17.1387 48.2422-17.1387Z"/>
  </g>
  <g id="Semibold-M" transform="matrix(1 0 0 1 1988.19 1126)">
   <path d="M12.4512 1.41602C12.4512 12.3047 18.2129 18.1152 29.0039 18.1152L81.1523 18.1152C91.9434 18.1152 97.7051 12.3047 97.7051 1.41602L97.7051-71.875C97.7051-82.7148 91.9434-88.5254 81.1523-88.5254L29.0039-88.5254C18.2129-88.5254 12.4512-82.7148 12.4512-71.875ZM23.6328 0.439453L23.6328-70.8496C23.6328-75.0977 25.7324-77.3438 30.1758-77.3438L79.9805-77.3438C84.375-77.3438 86.5234-75.0977 86.5234-70.8496L86.5234 0.439453C86.5234 4.63867 84.375 6.93359 79.9805 6.93359L30.1758 6.93359C25.7324 6.93359 23.6328 4.63867 23.6328 0.439453ZM34.668-41.3086C36.1816-41.3086 37.1094-42.0898 37.5977-43.8965L38.8184-47.5586L47.0215-47.5586L48.291-43.8965C48.7793-42.0898 49.707-41.3086 51.1719-41.3086C52.9297-41.3086 53.9551-42.334 53.9551-43.9941C53.9551-44.4824 53.8574-45.1172 53.6133-45.8496L47.4121-63.4277C46.582-65.7715 45.2148-66.9434 42.8711-66.9434C40.625-66.9434 39.3066-65.8203 38.4766-63.4277L32.2266-45.8496C32.0312-45.166 31.8848-44.4824 31.8848-43.9941C31.8848-42.334 33.0078-41.3086 34.668-41.3086ZM62.2559-58.5449L75-58.5449C76.8066-58.5449 78.1738-59.9609 78.1738-61.7676C78.1738-63.4766 76.8066-64.8438 75-64.8438L62.2559-64.8438C60.4004-64.8438 59.0332-63.4766 59.0332-61.7676C59.0332-59.9609 60.4004-58.5449 62.2559-58.5449ZM39.9414-51.9531L42.7734-61.2305L43.0664-61.2305L45.8984-51.9531ZM62.2559-42.7734L75-42.7734C76.8066-42.7734 78.1738-44.1895 78.1738-45.9961C78.1738-47.7539 76.8066-49.1211 75-49.1211L62.2559-49.1211C60.4004-49.1211 59.0332-47.7539 59.0332-45.9961C59.0332-44.1895 60.4004-42.7734 62.2559-42.7734ZM31.9336-5.07812L35.3027-5.07812L41.2109-11.084C42.041-11.8652 42.9199-12.207 43.8477-12.207C44.7754-12.207 45.752-11.8652 46.6309-11.084L50.3418-7.71484L59.668-15.9668C60.6934-16.8457 61.7676-17.2852 62.8418-17.2852C63.9648-17.2852 65.0879-16.8945 65.918-15.9668L74.9023-5.56641L78.2227-5.56641L78.2227-27.1973C78.2227-31.25 76.1719-33.3496 72.1191-33.3496L38.1348-33.3496C34.2285-33.3496 31.9336-31.25 31.9336-27.1973ZM46.9727-15.918C44.2871-15.918 42.0898-18.2129 42.041-20.8496C42.041-23.5352 44.2871-25.8301 46.9727-25.7812C49.6582-25.6836 51.9043-23.5352 51.9043-20.8496C51.9043-18.2129 49.6582-15.918 46.9727-15.918Z"/>
  </g>
  <g id="Medium-M" transform="matrix(1 0 0 1 1692.16 1126)">
   <path d="M12.4512 1.61133C12.4512 12.1582 17.9199 17.6758 28.3691 17.6758L80.4199 17.6758C90.918 17.6758 96.3379 12.1582 96.3379 1.61133L96.3379-72.0215C96.3379-82.6172 90.918-88.1348 80.4199-88.1348L28.3691-88.1348C17.9199-88.1348 12.4512-82.6172 12.4512-72.0215ZM22.168 0.976562L22.168-71.4355C22.168-75.9277 24.5117-78.3691 29.248-78.3691L79.541-78.3691C84.2773-78.3691 86.6211-75.9277 86.6211-71.4355L86.6211 0.976562C86.6211 5.46875 84.2773 7.91016 79.541 7.91016L29.248 7.91016C24.5117 7.91016 22.168 5.46875 22.168 0.976562ZM33.3008-41.1621C34.7168-41.1621 35.5957-41.8945 36.0352-43.6523L37.5-47.8027L46.0938-47.8027L47.6074-43.6523C48.0469-41.9434 48.9258-41.1621 50.3418-41.1621C52.0508-41.1621 53.0273-42.1387 53.0273-43.75C53.0273-44.1895 52.9297-44.8242 52.7344-45.5078L46.0449-64.0625C45.2637-66.3086 43.9941-67.3828 41.748-67.3828C39.6484-67.3828 38.3301-66.3086 37.5977-64.0625L30.9082-45.5078C30.7129-44.873 30.5664-44.1895 30.5664-43.75C30.5664-42.1387 31.6406-41.1621 33.3008-41.1621ZM61.377-58.9355L75.0977-58.9355C76.8555-58.9355 78.1738-60.3516 78.1738-62.1094C78.1738-63.8184 76.8555-65.1367 75.0977-65.1367L61.377-65.1367C59.5703-65.1367 58.252-63.8184 58.252-62.1094C58.252-60.3516 59.5703-58.9355 61.377-58.9355ZM38.623-52.0508L41.6504-61.7676L41.9434-61.7676L45.0195-52.0508ZM61.377-42.627L75.0977-42.627C76.8555-42.627 78.1738-44.043 78.1738-45.8008C78.1738-47.5098 76.8555-48.8281 75.0977-48.8281L61.377-48.8281C59.5703-48.8281 58.252-47.5098 58.252-45.8008C58.252-44.043 59.5703-42.627 61.377-42.627ZM30.5176-3.80859L33.9355-3.80859L40.0391-10.0098C40.918-10.8398 41.8457-11.1816 42.7734-11.1816C43.75-11.1816 44.7266-10.791 45.6543-10.0098L49.5117-6.49414L59.1309-15.0391C60.2051-15.9668 61.2793-16.4062 62.4023-16.4062C63.5742-16.4062 64.7461-16.0156 65.5762-15.0391L74.9023-4.29688L78.2715-4.29688L78.2715-26.6602C78.2715-30.8105 76.1719-32.959 71.9727-32.959L36.8652-32.959C32.8613-32.959 30.5176-30.8105 30.5176-26.6602ZM45.9961-14.9902C43.2129-14.9902 40.9668-17.334 40.918-20.1172C40.918-22.9004 43.2129-25.2441 45.9961-25.1465C48.7793-25.0488 51.0742-22.9004 51.0742-20.1172C51.0742-17.334 48.7793-14.9902 45.9961-14.9902Z"/>
  </g>
  <g id="Regular-M" transform="matrix(1 0 0 1 1396.33 1126)">
   <path d="M12.4512 1.80664C12.4512 12.0117 17.4805 17.0898 27.5879 17.0898L79.4434 17.0898C89.5508 17.0898 94.5801 12.0117 94.5801 1.80664L94.5801-72.2656C94.5801-82.4219 89.5508-87.5977 79.4434-87.5977L27.5879-87.5977C17.4805-87.5977 12.4512-82.4219 12.4512-72.2656ZM20.3125 1.66016L20.3125-72.1191C20.3125-77.002 22.9004-79.7363 27.9785-79.7363L79.0527-79.7363C84.1309-79.7363 86.7188-77.002 86.7188-72.1191L86.7188 1.66016C86.7188 6.54297 84.1309 9.22852 79.0527 9.22852L27.9785 9.22852C22.9004 9.22852 20.3125 6.54297 20.3125 1.66016ZM31.4941-40.9668C32.8125-40.9668 33.6426-41.6504 34.082-43.3105L35.7422-48.1445L44.9219-48.1445L46.6797-43.3105C47.1191-41.6992 47.9492-40.9668 49.2188-40.9668C50.8789-40.9668 51.8066-41.8945 51.8066-43.457C51.8066-43.7988 51.709-44.4336 51.5137-45.0684L44.3359-64.9414C43.6035-66.9922 42.3828-67.9688 40.2832-67.9688C38.3301-67.9688 37.1582-66.9922 36.4258-64.9414L29.248-45.0684C29.0039-44.4824 28.9062-43.7988 28.9062-43.457C28.9062-41.8945 29.8828-40.9668 31.4941-40.9668ZM60.3027-59.5215L75.1953-59.5215C76.9043-59.5215 78.2227-60.8398 78.2227-62.5488C78.2227-64.209 76.9043-65.5273 75.1953-65.5273L60.3027-65.5273C58.4961-65.5273 57.2266-64.209 57.2266-62.5488C57.2266-60.8398 58.4961-59.5215 60.3027-59.5215ZM36.8652-52.1973L40.1855-62.4512L40.4785-62.4512L43.8477-52.1973ZM60.3027-42.4805L75.1953-42.4805C76.9043-42.4805 78.2227-43.7988 78.2227-45.5078C78.2227-47.168 76.9043-48.4863 75.1953-48.4863L60.3027-48.4863C58.4961-48.4863 57.2266-47.168 57.2266-45.5078C57.2266-43.7988 58.4961-42.4805 60.3027-42.4805ZM28.6621-2.09961L32.0801-2.09961L38.5254-8.59375C39.4531-9.47266 40.4297-9.81445 41.4062-9.81445C42.3828-9.81445 43.457-9.42383 44.3848-8.59375L48.3887-4.93164L58.3984-13.8184C59.5215-14.7949 60.6934-15.2344 61.8164-15.2344C63.0371-15.2344 64.3066-14.8438 65.1855-13.8184L74.9512-2.58789L78.3691-2.58789L78.3691-25.9277C78.3691-30.2246 76.123-32.4219 71.8262-32.4219L35.2539-32.4219C31.1035-32.4219 28.6621-30.2246 28.6621-25.9277ZM44.7754-13.8184C41.8457-13.8184 39.502-16.2598 39.502-19.0918C39.502-22.0215 41.8457-24.4629 44.7754-24.3652C47.6562-24.2676 50.0488-22.0215 50.0488-19.0918C50.0488-16.2598 47.6562-13.8184 44.7754-13.8184Z"/>
  </g>
  <g id="Light-M" transform="matrix(1 0 0 1 1100.33 1126)">
   <path d="M12.4512 2.44141C12.4512 11.9629 17.2852 16.8457 26.709 16.8457L78.9062 16.8457C88.3789 16.8457 93.1641 11.9629 93.1641 2.44141L93.1641-72.8516C93.1641-82.373 88.3789-87.207 78.9062-87.207L26.709-87.207C17.2852-87.207 12.4512-82.373 12.4512-72.8516ZM18.5059 2.29492L18.5059-72.7051C18.5059-78.2227 21.3867-81.2012 27.0508-81.2012L78.6133-81.2012C84.2285-81.2012 87.1582-78.2227 87.1582-72.7051L87.1582 2.29492C87.1582 7.8125 84.2285 10.791 78.6133 10.791L27.0508 10.791C21.3867 10.791 18.5059 7.8125 18.5059 2.29492ZM29.6387-42.0898C30.6641-42.0898 31.3477-42.627 31.6895-43.8965L33.8379-49.7559L43.7012-49.7559L45.8984-43.8965C46.2402-42.627 46.9727-42.0898 47.9492-42.0898C49.3164-42.0898 50.0488-42.8223 50.0488-44.0918C50.0488-44.3848 49.9512-44.873 49.8047-45.3613L41.7969-66.6016C41.2598-68.1641 40.332-68.8965 38.7695-68.8965C37.2559-68.8965 36.3281-68.1641 35.791-66.6016L27.7832-45.3613C27.6367-44.873 27.5391-44.3848 27.5391-44.0918C27.5391-42.8223 28.3203-42.0898 29.6387-42.0898ZM58.7891-60.791L76.1719-60.791C77.5879-60.791 78.6133-61.8652 78.6133-63.2324C78.6133-64.5508 77.5879-65.625 76.1719-65.625L58.7891-65.625C57.373-65.625 56.2988-64.5508 56.2988-63.2324C56.2988-61.8652 57.373-60.791 58.7891-60.791ZM34.9121-53.2227L38.6719-64.1113L38.8672-64.1113L42.6758-53.2227ZM58.7891-43.6523L76.1719-43.6523C77.5879-43.6523 78.6133-44.7266 78.6133-46.0938C78.6133-47.4121 77.5879-48.4863 76.1719-48.4863L58.7891-48.4863C57.373-48.4863 56.2988-47.4121 56.2988-46.0938C56.2988-44.7266 57.373-43.6523 58.7891-43.6523ZM26.709-1.46484L29.4434-1.46484L36.7188-8.49609C37.7441-9.47266 38.8184-9.91211 39.8438-9.91211C40.8691-9.91211 42.041-9.42383 43.0176-8.49609L47.2168-4.6875L57.9102-14.0625C59.1797-15.0879 60.4492-15.625 61.6211-15.625C62.9395-15.625 64.3555-15.1855 65.332-14.0137L76.1719-1.80664L78.9062-1.80664L78.9062-27.002C78.9062-31.2988 76.709-33.4473 72.4121-33.4473L33.252-33.4473C29.0527-33.4473 26.709-31.2988 26.709-27.002ZM43.4082-14.1113C40.332-14.1113 37.793-16.6992 37.793-19.7754C37.793-22.8516 40.332-25.4883 43.4082-25.3906C46.5332-25.3418 49.0723-22.8516 49.0723-19.7754C49.0723-16.6992 46.5332-14.1113 43.4082-14.1113Z"/>
  </g>
  <g id="Thin-M" transform="matrix(1 0 0 1 804.518 1126)">
   <path d="M12.4512 3.27148C12.4512 11.9629 16.9434 16.4551 25.5859 16.4551L78.2227 16.4551C86.8164 16.4551 91.3574 11.9629 91.3574 3.27148L91.3574-73.584C91.3574-82.2266 86.8164-86.7676 78.2227-86.7676L25.5859-86.7676C16.9434-86.7676 12.4512-82.2266 12.4512-73.584ZM16.0645 3.17383L16.0645-73.4863C16.0645-79.834 19.3848-83.1543 25.7812-83.1543L78.0273-83.1543C84.4238-83.1543 87.7441-79.834 87.7441-73.4863L87.7441 3.17383C87.7441 9.52148 84.4238 12.8418 78.0273 12.8418L25.7812 12.8418C19.3848 12.8418 16.0645 9.52148 16.0645 3.17383ZM27.1973-43.5547C27.832-43.5547 28.2715-43.8965 28.5156-44.6289L31.3477-51.9531L42.0898-51.9531L44.9219-44.6289C45.1172-43.8965 45.6055-43.5547 46.2402-43.5547C47.168-43.5547 47.7051-44.0918 47.7051-44.9219C47.7051-45.1172 47.6562-45.459 47.5586-45.752L38.5254-68.8477C38.1836-69.6777 37.5977-70.166 36.7188-70.166C35.8398-70.166 35.2051-69.6777 34.9121-68.8477L25.8789-45.752C25.7812-45.459 25.7324-45.1172 25.7324-44.9219C25.7324-44.0918 26.2695-43.5547 27.1973-43.5547ZM32.2754-54.541L36.6699-66.2598L36.7676-66.2598L41.1621-54.541ZM56.8359-62.5L77.4902-62.5C78.418-62.5 79.1504-63.2324 79.1504-64.1113C79.1504-65.0391 78.418-65.7227 77.4902-65.7227L56.8359-65.7227C55.8594-65.7227 55.127-65.0391 55.127-64.1113C55.127-63.2324 55.8594-62.5 56.8359-62.5ZM56.8359-45.2148L77.4902-45.2148C78.418-45.2148 79.1504-45.9473 79.1504-46.875C79.1504-47.7539 78.418-48.4863 77.4902-48.4863L56.8359-48.4863C55.8594-48.4863 55.127-47.7539 55.127-46.875C55.127-45.9473 55.8594-45.2148 56.8359-45.2148ZM24.1211-0.683594L25.9277-0.683594L34.3262-8.39844C35.498-9.47266 36.6699-9.96094 37.7441-9.96094C38.8672-9.96094 40.1367-9.42383 41.2109-8.39844L45.6543-4.3457L57.2754-14.3555C58.6914-15.5273 60.1074-16.1621 61.377-16.1621C62.793-16.1621 64.4043-15.625 65.5762-14.3066L77.832-0.78125L79.6387-0.78125L79.6387-28.418C79.6387-32.7148 77.5391-34.8145 73.2422-34.8145L30.5664-34.8145C26.3184-34.8145 24.1211-32.7148 24.1211-28.418ZM41.6504-14.502C38.2812-14.502 35.498-17.2852 35.498-20.6543C35.498-24.0234 38.2812-26.8066 41.6504-26.7578C45.0195-26.7578 47.7539-24.0234 47.7539-20.6543C47.7539-17.2852 45.0195-14.502 41.6504-14.502Z"/>
  </g>
  <g id="Ultralight-M" transform="matrix(1 0 0 1 508.295 1126)">
   <path d="M12.4512 3.71094C12.4512 11.9141 16.7969 16.2598 25 16.2598L77.8809 16.2598C86.0352 16.2598 90.3809 11.9141 90.3809 3.71094L90.3809-73.9746C90.3809-82.1777 86.0352-86.5234 77.8809-86.5234L25-86.5234C16.7969-86.5234 12.4512-82.1777 12.4512-73.9746ZM14.8438 3.61328L14.8438-73.877C14.8438-80.6152 18.3594-84.1309 25.0977-84.1309L77.7344-84.1309C84.5215-84.1309 87.9883-80.6152 87.9883-73.877L87.9883 3.61328C87.9883 10.3516 84.5215 13.8672 77.7344 13.8672L25.0977 13.8672C18.3594 13.8672 14.8438 10.3516 14.8438 3.61328ZM25.9277-44.2871C26.3672-44.2871 26.709-44.5312 26.9043-45.0195L30.0293-53.0273L41.2598-53.0273L44.3848-45.0195C44.5801-44.5312 44.9219-44.2871 45.3613-44.2871C46.0938-44.2871 46.4844-44.7266 46.4844-45.3125C46.4844-45.5078 46.4355-45.752 46.3867-45.9473L36.8164-70.0195C36.6211-70.459 36.2305-70.752 35.6934-70.752C35.1562-70.752 34.668-70.459 34.4727-70.0195L24.9023-45.9473C24.8535-45.752 24.7559-45.5078 24.7559-45.3125C24.7559-44.7266 25.1953-44.2871 25.9277-44.2871ZM30.9082-55.2734L35.5957-67.3828L35.6934-67.3828L40.3809-55.2734ZM55.8105-63.3789L78.125-63.3789C78.8574-63.3789 79.3945-63.916 79.3945-64.5996C79.3945-65.2344 78.8574-65.8203 78.125-65.8203L55.8105-65.8203C55.0781-65.8203 54.541-65.2344 54.541-64.5996C54.541-63.916 55.0781-63.3789 55.8105-63.3789ZM55.8105-46.0449L78.125-46.0449C78.8574-46.0449 79.3945-46.582 79.3945-47.2656C79.3945-47.9492 78.8574-48.4863 78.125-48.4863L55.8105-48.4863C55.0781-48.4863 54.541-47.9492 54.541-47.2656C54.541-46.582 55.0781-46.0449 55.8105-46.0449ZM22.8027-0.244141L24.1699-0.244141L33.1055-8.34961C34.375-9.47266 35.5469-10.0098 36.6699-10.0098C37.8418-10.0098 39.1602-9.375 40.2832-8.34961L44.873-4.15039L56.9336-14.502C58.4473-15.7715 59.9121-16.4062 61.2305-16.4062C62.7441-16.4062 64.4531-15.8203 65.6738-14.4531L78.7109-0.244141L80.0293-0.244141L80.0293-29.1504C80.0293-33.4473 77.9297-35.498 73.6328-35.498L29.248-35.498C24.9512-35.498 22.8027-33.4473 22.8027-29.1504ZM40.7227-14.6973C37.2559-14.6973 34.375-17.5781 34.375-21.0938C34.375-24.6094 37.2559-27.4414 40.7227-27.4414C44.2383-27.4902 47.1191-24.6094 47.1191-21.0938C47.1191-17.5781 44.2383-14.6973 40.7227-14.6973Z"/>
  </g>
  <g id="Black-S" transform="matrix(1 0 0 1 2887.7 696)">
   <path d="M9.76562-7.08008C9.76562 2.49023 15.4297 8.1543 25 8.1543L66.4062 8.1543C75.9766 8.1543 81.6406 2.49023 81.6406-7.08008L81.6406-63.3301C81.6406-72.9004 75.9766-78.5645 66.4062-78.5645L25-78.5645C15.4297-78.5645 9.76562-72.9004 9.76562-63.3301ZM23.9258-9.32617L23.9258-61.084C23.9258-63.3301 24.8047-64.4043 27.2461-64.4043L64.1602-64.4043C66.6016-64.4043 67.4805-63.3301 67.4805-61.084L67.4805-9.32617C67.4805-7.08008 66.6016-6.00586 64.1602-6.00586L27.2461-6.00586C24.8047-6.00586 23.9258-7.08008 23.9258-9.32617ZM32.2754-40.5273C33.8379-40.5273 34.8145-41.2598 35.2051-42.9688L35.4492-43.9941L40.2344-43.9941L40.5273-42.9688C41.0156-41.2598 41.748-40.5273 43.3105-40.5273C44.8242-40.5273 45.8008-41.5527 45.8008-43.0176C45.8008-43.5059 45.7031-44.1406 45.5078-44.7754L42.1875-54.834C41.4062-57.1777 40.0391-58.3496 37.793-58.3496C35.5957-58.3496 34.2773-57.2266 33.4961-54.834L30.1758-44.7754C29.9805-44.1406 29.834-43.5059 29.834-43.0176C29.834-41.4551 30.957-40.5273 32.2754-40.5273ZM52.002-51.9043L58.3984-51.9043C59.9609-51.9043 61.1328-53.125 61.1328-54.6875C61.1328-56.2012 59.9609-57.373 58.3984-57.373L52.002-57.373C50.3906-57.373 49.2188-56.2012 49.2188-54.6875C49.2188-53.125 50.3906-51.9043 52.002-51.9043ZM36.3281-47.9492L37.7441-53.6133L37.9395-53.6133L39.3555-47.9492ZM52.002-41.6504L58.3984-41.6504C59.9609-41.6504 61.1328-42.8711 61.1328-44.4336C61.1328-45.9473 59.9609-47.1191 58.3984-47.1191L52.002-47.1191C50.3906-47.1191 49.2188-45.9473 49.2188-44.4336C49.2188-42.8711 50.3906-41.6504 52.002-41.6504ZM30.3223-16.4551L32.9102-16.4551L36.6699-20.3613C37.1582-20.8496 37.7441-21.0938 38.3789-21.0938C38.9648-21.0938 39.5996-20.8496 40.1855-20.3613L42.6758-18.1152L48.8281-23.584C49.4629-24.1699 50.1465-24.4141 50.8301-24.4141C51.6113-24.4141 52.2949-24.1699 52.832-23.584L58.5938-16.8457L61.1328-16.8457L61.1328-31.0059C61.1328-33.7402 59.7168-35.2051 56.9336-35.2051L34.6191-35.2051C31.9336-35.2051 30.3223-33.7402 30.3223-31.0059ZM40.4297-23.5352C38.6719-23.5352 37.207-25.0488 37.1582-26.8066C37.1094-28.5645 38.6719-30.0781 40.4297-30.0293C42.1875-29.9805 43.6523-28.5645 43.6523-26.8066C43.6523-25.0488 42.1875-23.5352 40.4297-23.5352Z"/>
  </g>
  <g id="Heavy-S" transform="matrix(1 0 0 1 2591.79 696)">
   <path d="M9.76562-6.93359C9.76562 2.34375 15.0391 7.61719 24.3164 7.61719L65.4785 7.61719C74.7559 7.61719 80.0293 2.34375 80.0293-6.93359L80.0293-63.4766C80.0293-72.7539 74.7559-78.0762 65.4785-78.0762L24.3164-78.0762C15.0391-78.0762 9.76562-72.7539 9.76562-63.4766ZM22.2656-8.69141L22.2656-61.7188C22.2656-64.3066 23.3887-65.5762 26.123-65.5762L63.6719-65.5762C66.4062-65.5762 67.5293-64.3066 67.5293-61.7188L67.5293-8.69141C67.5293-6.15234 66.4062-4.83398 63.6719-4.83398L26.123-4.83398C23.3887-4.83398 22.2656-6.15234 22.2656-8.69141ZM30.7129-40.2344C32.1777-40.2344 33.1055-40.918 33.4473-42.5781L33.9355-44.1406L39.209-44.1406L39.6973-42.5781C40.1367-40.918 40.8691-40.2344 42.334-40.2344C43.8477-40.2344 44.7754-41.1621 44.7754-42.627C44.7754-43.0664 44.6777-43.7012 44.4824-44.3359L40.7227-55.5176C39.9414-57.7148 38.6719-58.8379 36.5234-58.8379C34.4238-58.8379 33.1543-57.7637 32.4219-55.5176L28.6133-44.3359C28.418-43.7012 28.3203-43.0664 28.3203-42.627C28.3203-41.1133 29.3457-40.2344 30.7129-40.2344ZM51.0254-52.2949L58.3984-52.2949C59.9609-52.2949 61.1328-53.5156 61.1328-55.0781C61.1328-56.5918 59.9609-57.7148 58.3984-57.7148L51.0254-57.7148C49.4629-57.7148 48.291-56.5918 48.291-55.0781C48.291-53.5156 49.4629-52.2949 51.0254-52.2949ZM34.8145-47.9492L36.4258-54.1016L36.6699-54.1016L38.3301-47.9492ZM51.0254-41.3574L58.3984-41.3574C59.9609-41.3574 61.1328-42.5293 61.1328-44.0918C61.1328-45.6055 59.9609-46.7773 58.3984-46.7773L51.0254-46.7773C49.4629-46.7773 48.291-45.6055 48.291-44.0918C48.291-42.5293 49.4629-41.3574 51.0254-41.3574ZM28.7109-14.8438L31.3965-14.8438L35.3516-18.9453C35.8887-19.4824 36.4746-19.7266 37.1582-19.7266C37.793-19.7266 38.4766-19.4824 39.0625-18.9453L41.6992-16.6016L48.1445-22.3633C48.8281-22.9492 49.5605-23.2422 50.293-23.2422C51.123-23.2422 51.8555-22.9492 52.3926-22.3633L58.4961-15.2344L61.1328-15.2344L61.1328-30.1758C61.1328-33.0566 59.6191-34.5703 56.6895-34.5703L33.2031-34.5703C30.3711-34.5703 28.7109-33.0566 28.7109-30.1758ZM39.3066-22.3145C37.4512-22.3145 35.9375-23.877 35.8887-25.7324C35.8398-27.5879 37.4512-29.1992 39.3066-29.1504C41.1621-29.0527 42.7246-27.5879 42.7246-25.7324C42.7246-23.877 41.1621-22.3145 39.3066-22.3145Z"/>
  </g>
  <g id="Bold-S" transform="matrix(1 0 0 1 2295.98 696)">
   <path d="M9.76562-6.78711C9.76562 2.14844 14.6484 7.03125 23.5352 7.03125L64.4531 7.03125C73.3398 7.03125 78.2227 2.14844 78.2227-6.78711L78.2227-63.623C78.2227-72.5586 73.3398-77.4902 64.4531-77.4902L23.5352-77.4902C14.6484-77.4902 9.76562-72.5586 9.76562-63.623ZM20.3613-7.95898L20.3613-62.4512C20.3613-65.332 21.7773-66.8945 24.8047-66.8945L63.1348-66.8945C66.2109-66.8945 67.627-65.332 67.627-62.4512L67.627-7.95898C67.627-5.07812 66.2109-3.56445 63.1348-3.56445L24.8047-3.56445C21.7773-3.56445 20.3613-5.07812 20.3613-7.95898ZM28.9551-39.8438C30.3223-39.8438 31.1523-40.5273 31.543-42.1387L32.1777-44.2871L38.0371-44.2871L38.7207-42.1387C39.1602-40.5762 39.8926-39.8438 41.2598-39.8438C42.7246-39.8438 43.6523-40.7715 43.6523-42.1875C43.6523-42.5781 43.5547-43.1641 43.3594-43.7988L39.0625-56.25C38.3301-58.3496 37.1094-59.375 35.0586-59.375C33.0566-59.375 31.8848-58.3984 31.1523-56.25L26.9043-43.7988C26.709-43.2129 26.5625-42.5781 26.5625-42.1875C26.5625-40.7227 27.5879-39.8438 28.9551-39.8438ZM50-52.7832L58.4473-52.7832C59.9609-52.7832 61.1328-53.9551 61.1328-55.5176C61.1328-56.9824 59.9609-58.1543 58.4473-58.1543L50-58.1543C48.3887-58.1543 47.2656-56.9824 47.2656-55.5176C47.2656-53.9551 48.3887-52.7832 50-52.7832ZM33.1055-47.998L35.0098-54.6875L35.2051-54.6875L37.1582-47.998ZM50-40.9668L58.4473-40.9668C59.9609-40.9668 61.1328-42.1875 61.1328-43.7012C61.1328-45.2148 59.9609-46.3867 58.4473-46.3867L50-46.3867C48.3887-46.3867 47.2656-45.2148 47.2656-43.7012C47.2656-42.1875 48.3887-40.9668 50-40.9668ZM26.8555-13.0371L29.6875-13.0371L33.8867-17.3828C34.4238-17.9688 35.1074-18.2129 35.791-18.2129C36.4746-18.2129 37.1582-17.9199 37.793-17.3828L40.5762-14.8926L47.4121-20.9473C48.1445-21.6309 48.9258-21.9238 49.707-21.9238C50.5371-21.9238 51.3184-21.6309 51.9043-20.9473L58.3496-13.4277L61.1328-13.4277L61.1328-29.1992C61.1328-32.2754 59.5215-33.8867 56.4453-33.8867L31.5918-33.8867C28.6621-33.8867 26.8555-32.2754 26.8555-29.1992ZM38.0859-20.8984C36.1328-20.8984 34.4727-22.6074 34.4727-24.5605C34.4238-26.5137 36.1328-28.2227 38.0859-28.125C40.0391-28.0762 41.6504-26.5137 41.6504-24.5605C41.6504-22.6074 40.0391-20.8984 38.0859-20.8984Z"/>
  </g>
  <g id="Semibold-S" transform="matrix(1 0 0 1 1999.91 696)">
   <path d="M9.76562-6.68945C9.76562 2.00195 14.3555 6.64062 22.998 6.64062L63.7695 6.64062C72.4121 6.64062 76.9531 2.00195 76.9531-6.68945L76.9531-63.7695C76.9531-72.4609 72.4121-77.0996 63.7695-77.0996L22.998-77.0996C14.3555-77.0996 9.76562-72.4609 9.76562-63.7695ZM19.0918-7.4707L19.0918-62.9883C19.0918-66.0645 20.6543-67.7734 23.9258-67.7734L62.793-67.7734C66.0645-67.7734 67.6758-66.0645 67.6758-62.9883L67.6758-7.4707C67.6758-4.39453 66.0645-2.68555 62.793-2.68555L23.9258-2.68555C20.6543-2.68555 19.0918-4.39453 19.0918-7.4707ZM27.7344-39.5996C29.0039-39.5996 29.7852-40.2832 30.1758-41.8457L31.0059-44.3848L37.207-44.3848L38.0859-41.8457C38.4766-40.2832 39.2578-39.5996 40.5273-39.5996C41.9922-39.5996 42.8711-40.4785 42.8711-41.8945C42.8711-42.2852 42.7734-42.8223 42.5781-43.457L37.9395-56.7871C37.207-58.7891 36.0352-59.7656 34.082-59.7656C32.1777-59.7656 31.0059-58.8379 30.3223-56.7871L25.6836-43.457C25.4883-42.8711 25.3906-42.2852 25.3906-41.8945C25.3906-40.4785 26.3184-39.5996 27.7344-39.5996ZM49.2676-53.0762L58.4473-53.0762C59.9609-53.0762 61.084-54.248 61.084-55.8105C61.084-57.2754 59.9609-58.3984 58.4473-58.3984L49.2676-58.3984C47.6562-58.3984 46.5332-57.2754 46.5332-55.8105C46.5332-54.248 47.6562-53.0762 49.2676-53.0762ZM31.9336-47.998L33.9844-55.0781L34.2285-55.0781L36.3281-47.998ZM49.2676-40.7227L58.4473-40.7227C59.9609-40.7227 61.084-41.9434 61.084-43.457C61.084-44.9219 59.9609-46.0938 58.4473-46.0938L49.2676-46.0938C47.6562-46.0938 46.5332-44.9219 46.5332-43.457C46.5332-41.9434 47.6562-40.7227 49.2676-40.7227ZM25.6348-11.7676L28.5156-11.7676L32.8613-16.3086C33.4473-16.8945 34.1309-17.1387 34.8633-17.1387C35.5469-17.1387 36.2793-16.8945 36.9629-16.3086L39.8438-13.6719L46.9238-20.0195C47.6562-20.6543 48.4375-20.9961 49.2676-20.9961C50.1465-20.9961 50.9766-20.7031 51.5625-20.0195L58.252-12.207L61.1328-12.207L61.1328-28.5645C61.1328-31.7383 59.4727-33.3984 56.2988-33.3984L30.5176-33.3984C27.4414-33.3984 25.6348-31.7383 25.6348-28.5645ZM37.207-19.9707C35.1562-19.9707 33.4961-21.6797 33.4961-23.7305C33.4473-25.7812 35.1562-27.5391 37.207-27.4414C39.2578-27.3438 40.9668-25.7812 40.9668-23.7305C40.9668-21.6797 39.2578-19.9707 37.207-19.9707Z"/>
  </g>
  <g id="Medium-S" transform="matrix(1 0 0 1 1703.66 696)">
   <path d="M9.76562-6.64062C9.76562 1.9043 14.1113 6.29883 22.5586 6.29883L63.2324 6.29883C71.6797 6.29883 76.0254 1.9043 76.0254-6.64062L76.0254-63.8672C76.0254-72.3633 71.6797-76.8066 63.2324-76.8066L22.5586-76.8066C14.1113-76.8066 9.76562-72.3633 9.76562-63.8672ZM18.0664-7.12891L18.0664-63.3789C18.0664-66.6504 19.8242-68.457 23.291-68.457L62.5-68.457C65.9668-68.457 67.6758-66.6504 67.6758-63.3789L67.6758-7.12891C67.6758-3.85742 65.9668-2.00195 62.5-2.00195L23.291-2.00195C19.8242-2.00195 18.0664-3.85742 18.0664-7.12891ZM26.8066-39.4043C28.0273-39.4043 28.8086-40.0391 29.1992-41.6016L30.127-44.4336L36.5723-44.4336L37.5977-41.6016C37.9883-40.0879 38.7207-39.4043 39.9414-39.4043C41.4062-39.4043 42.2363-40.2832 42.2363-41.6504C42.2363-41.9922 42.1387-42.5781 41.9434-43.1641L37.0605-57.1777C36.377-59.1309 35.2539-60.0586 33.3008-60.0586C31.4453-60.0586 30.3711-59.1309 29.6875-57.1777L24.8047-43.1641C24.6094-42.5781 24.5117-41.9922 24.5117-41.6504C24.5117-40.2344 25.3906-39.4043 26.8066-39.4043ZM48.6816-53.3203L58.4473-53.3203C59.9609-53.3203 61.084-54.4922 61.084-56.0059C61.084-57.4707 59.9609-58.6426 58.4473-58.6426L48.6816-58.6426C47.1191-58.6426 45.9961-57.4707 45.9961-56.0059C45.9961-54.4922 47.1191-53.3203 48.6816-53.3203ZM31.0547-47.998L33.2031-55.3711L33.4961-55.3711L35.7422-47.998ZM48.6816-40.5762L58.4473-40.5762C59.9609-40.5762 61.084-41.748 61.084-43.2617C61.084-44.7266 59.9609-45.8984 58.4473-45.8984L48.6816-45.8984C47.1191-45.8984 45.9961-44.7266 45.9961-43.2617C45.9961-41.748 47.1191-40.5762 48.6816-40.5762ZM24.6582-10.791L27.5879-10.791L32.0801-15.4785C32.7148-16.0645 33.3984-16.3574 34.1309-16.3574C34.8633-16.3574 35.5957-16.0645 36.2793-15.4785L39.2578-12.793L46.5332-19.2871C47.3145-19.9707 48.0957-20.3125 48.9746-20.3125C49.8535-20.3125 50.6836-20.0195 51.3184-19.2871L58.2031-11.2793L61.1328-11.2793L61.1328-28.0762C61.1328-31.2988 59.4238-33.0078 56.1523-33.0078L29.6875-33.0078C26.5625-33.0078 24.6582-31.2988 24.6582-28.0762ZM36.5723-19.2383C34.4727-19.2383 32.7637-21.0449 32.7148-23.0957C32.7148-25.1953 34.4727-27.002 36.5723-26.9043C38.6719-26.8555 40.3809-25.1953 40.3809-23.0957C40.3809-21.0449 38.6719-19.2383 36.5723-19.2383Z"/>
  </g>
  <g id="Regular-S" transform="matrix(1 0 0 1 1407.56 696)">
   <path d="M9.76562-6.54297C9.76562 1.80664 13.8184 5.9082 22.0215 5.9082L62.5 5.9082C70.7031 5.9082 74.8047 1.80664 74.8047-6.54297L74.8047-63.9648C74.8047-72.2656 70.7031-76.416 62.5-76.416L22.0215-76.416C13.8184-76.416 9.76562-72.2656 9.76562-63.9648ZM16.7969-6.64062L16.7969-63.8672C16.7969-67.3828 18.7012-69.3848 22.4121-69.3848L62.1582-69.3848C65.8203-69.3848 67.7246-67.3828 67.7246-63.8672L67.7246-6.64062C67.7246-3.125 65.8203-1.12305 62.1582-1.12305L22.4121-1.12305C18.7012-1.12305 16.7969-3.125 16.7969-6.64062ZM25.5859-39.209C26.7578-39.209 27.4902-39.7949 27.832-41.3086L28.9551-44.5312L35.791-44.5312L36.9629-41.3086C37.3047-39.8438 38.0859-39.209 39.209-39.209C40.6738-39.209 41.4551-39.9902 41.4551-41.3574C41.4551-41.6992 41.3574-42.1875 41.2109-42.8223L35.9375-57.666C35.3027-59.5703 34.1797-60.4492 32.3242-60.4492C30.5664-60.4492 29.4922-59.5703 28.8574-57.666L23.584-42.8223C23.4375-42.2363 23.3398-41.6992 23.3398-41.3574C23.3398-39.9902 24.1699-39.209 25.5859-39.209ZM47.9492-53.6133L58.4473-53.6133C59.9609-53.6133 61.084-54.7852 61.084-56.2988C61.084-57.7637 59.9609-58.8867 58.4473-58.8867L47.9492-58.8867C46.3867-58.8867 45.2637-57.7637 45.2637-56.2988C45.2637-54.7852 46.3867-53.6133 47.9492-53.6133ZM29.8828-47.998L32.2266-55.7617L32.5195-55.7617L34.9121-47.998ZM47.9492-40.332L58.4473-40.332C59.9609-40.332 61.084-41.5039 61.084-43.0176C61.084-44.4824 59.9609-45.6055 58.4473-45.6055L47.9492-45.6055C46.3867-45.6055 45.2637-44.4824 45.2637-43.0176C45.2637-41.5039 46.3867-40.332 47.9492-40.332ZM23.4375-9.57031L26.4648-9.57031L31.0547-14.4043C31.7383-15.0391 32.4707-15.2832 33.2031-15.2832C33.9355-15.2832 34.7168-15.0391 35.4492-14.4043L38.4766-11.6211L45.9961-18.3594C46.8262-19.043 47.6562-19.3848 48.5352-19.3848C49.4629-19.3848 50.3418-19.0918 51.0254-18.3594L58.1055-10.0586L61.1328-10.0586L61.1328-27.3926C61.1328-30.7617 59.375-32.5195 56.0059-32.5195L28.6133-32.5195C25.3418-32.5195 23.4375-30.7617 23.4375-27.3926ZM35.7422-18.3105C33.5449-18.3105 31.7871-20.1172 31.7871-22.2656C31.7871-24.4629 33.5449-26.3184 35.7422-26.2207C37.8906-26.123 39.6973-24.4629 39.6973-22.2656C39.6973-20.1172 37.8906-18.3105 35.7422-18.3105Z"/>
  </g>
  <g id="Light-S" transform="matrix(1 0 0 1 1111.48 696)">
   <path d="M9.76562-5.95703C9.76562 1.75781 13.623 5.66406 21.2891 5.66406L62.0605 5.66406C69.6777 5.66406 73.5352 1.75781 73.5352-5.95703L73.5352-64.4531C73.5352-72.168 69.6777-76.123 62.0605-76.123L21.2891-76.123C13.623-76.123 9.76562-72.168 9.76562-64.4531ZM15.1855-6.05469L15.1855-64.3555C15.1855-68.457 17.3828-70.6543 21.582-70.6543L61.7676-70.6543C65.9668-70.6543 68.1152-68.457 68.1152-64.3555L68.1152-6.05469C68.1152-2.00195 65.9668 0.244141 61.7676 0.244141L21.582 0.244141C17.3828 0.244141 15.1855-2.00195 15.1855-6.05469ZM23.9258-40.1855C24.8535-40.1855 25.4395-40.625 25.7324-41.7969L27.2461-45.9961L34.7168-45.9961L36.2793-41.7969C36.5723-40.6738 37.1582-40.1855 38.0371-40.1855C39.2578-40.1855 39.8926-40.8203 39.8926-41.8945C39.8926-42.1875 39.8438-42.627 39.6973-43.0664L33.7402-59.1797C33.252-60.5957 32.373-61.2793 30.957-61.2793C29.5898-61.2793 28.7598-60.5957 28.2715-59.1797L22.3145-43.0664C22.168-42.627 22.1191-42.1875 22.1191-41.8945C22.1191-40.8203 22.8027-40.1855 23.9258-40.1855ZM46.6309-54.7852L59.3262-54.7852C60.5469-54.7852 61.4258-55.7129 61.4258-56.8848C61.4258-58.0566 60.5469-58.9844 59.3262-58.9844L46.6309-58.9844C45.4102-58.9844 44.4824-58.0566 44.4824-56.8848C44.4824-55.7129 45.4102-54.7852 46.6309-54.7852ZM28.125-48.9258L30.9082-57.2266L31.1035-57.2266L33.8867-48.9258ZM46.6309-41.3574L59.3262-41.3574C60.5469-41.3574 61.4258-42.334 61.4258-43.5059C61.4258-44.6777 60.5469-45.6055 59.3262-45.6055L46.6309-45.6055C45.4102-45.6055 44.4824-44.6777 44.4824-43.5059C44.4824-42.334 45.4102-41.3574 46.6309-41.3574ZM21.6797-9.0332L24.1211-9.0332L29.4922-14.3066C30.2246-15.0391 31.0059-15.332 31.7871-15.332C32.6172-15.332 33.4961-15.0391 34.2285-14.3066L37.4512-11.377L45.5566-18.5547C46.4844-19.3359 47.4609-19.7266 48.3887-19.7266C49.3652-19.7266 50.3906-19.3848 51.1719-18.5547L59.2285-9.32617L61.6211-9.32617L61.6211-28.3691C61.6211-31.7383 59.9121-33.4473 56.543-33.4473L26.8066-33.4473C23.5352-33.4473 21.6797-31.7383 21.6797-28.3691ZM34.5215-18.5547C32.1777-18.5547 30.2734-20.5566 30.2734-22.8516C30.2734-25.1953 32.1777-27.1973 34.5215-27.1484C36.9141-27.0996 38.8184-25.1953 38.8184-22.8516C38.8184-20.5566 36.9141-18.5547 34.5215-18.5547Z"/>
  </g>
  <g id="Thin-S" transform="matrix(1 0 0 1 815.578 696)">
   <path d="M9.76562-5.22461C9.76562 1.75781 13.3789 5.32227 20.2637 5.32227L61.4258 5.32227C68.3594 5.32227 71.9238 1.75781 71.9238-5.22461L71.9238-65.1367C71.9238-72.0703 68.3594-75.6836 61.4258-75.6836L20.2637-75.6836C13.3789-75.6836 9.76562-72.0703 9.76562-65.1367ZM13.0859-5.32227L13.0859-65.0391C13.0859-69.873 15.5762-72.4121 20.459-72.4121L61.2793-72.4121C66.1133-72.4121 68.6035-69.873 68.6035-65.0391L68.6035-5.32227C68.6035-0.488281 66.1133 2.05078 61.2793 2.05078L20.459 2.05078C15.5762 2.05078 13.0859-0.488281 13.0859-5.32227ZM21.7773-41.4551C22.3633-41.4551 22.7539-41.748 22.9492-42.4316L25.0488-47.9004L33.3008-47.9004L35.4004-42.4316C35.5957-41.7969 35.9863-41.4551 36.5723-41.4551C37.3535-41.4551 37.8418-41.9434 37.8418-42.627C37.8418-42.8223 37.793-43.1152 37.6953-43.4082L30.8105-61.1328C30.5176-61.9141 29.9805-62.3535 29.1504-62.3535C28.3691-62.3535 27.832-61.9141 27.5391-61.1328L20.6543-43.4082C20.5566-43.1152 20.5078-42.8223 20.5078-42.627C20.5078-41.9434 20.9961-41.4551 21.7773-41.4551ZM25.7812-50.0977L29.1016-59.1309L29.1992-59.1309L32.5684-50.0977ZM44.9219-56.25L60.4492-56.25C61.2793-56.25 61.9141-56.8848 61.9141-57.7148C61.9141-58.4961 61.2793-59.082 60.4492-59.082L44.9219-59.082C44.043-59.082 43.457-58.4961 43.457-57.7148C43.457-56.8848 44.043-56.25 44.9219-56.25ZM44.9219-42.7734L60.4492-42.7734C61.2793-42.7734 61.9141-43.4082 61.9141-44.1895C61.9141-44.9707 61.2793-45.6055 60.4492-45.6055L44.9219-45.6055C44.043-45.6055 43.457-44.9707 43.457-44.1895C43.457-43.4082 44.043-42.7734 44.9219-42.7734ZM19.4336-8.30078L20.9961-8.30078L27.3438-14.209C28.2715-15.0391 29.1504-15.4297 29.9805-15.4297C30.8594-15.4297 31.8359-14.9902 32.666-14.209L36.084-11.084L45.0195-18.7988C46.0938-19.7266 47.168-20.166 48.1445-20.166C49.2676-20.166 50.4395-19.7754 51.3184-18.7988L60.6934-8.44727L62.2559-8.44727L62.2559-29.6387C62.2559-33.0078 60.5957-34.6191 57.2266-34.6191L24.4629-34.6191C21.1426-34.6191 19.4336-33.0078 19.4336-29.6387ZM32.959-18.8965C30.3711-18.8965 28.2715-21.0449 28.2715-23.6328C28.2715-26.2207 30.3711-28.3691 32.959-28.3203C35.5469-28.3203 37.6953-26.2207 37.6953-23.6328C37.6953-21.0449 35.5469-18.8965 32.959-18.8965Z"/>
  </g>
  <g id="Ultralight-S" transform="matrix(1 0 0 1 519.281 696)">
   <path d="M9.76562-4.83398C9.76562 1.70898 13.2324 5.17578 19.7266 5.17578L61.084 5.17578C67.627 5.17578 71.0938 1.70898 71.0938-4.83398L71.0938-65.4785C71.0938-72.0215 67.627-75.4883 61.084-75.4883L19.7266-75.4883C13.2324-75.4883 9.76562-72.0215 9.76562-65.4785ZM11.9629-4.93164L11.9629-65.3809C11.9629-70.6055 14.6484-73.291 19.873-73.291L60.9863-73.291C66.2109-73.291 68.8965-70.6055 68.8965-65.3809L68.8965-4.93164C68.8965 0.244141 66.2109 2.97852 60.9863 2.97852L19.873 2.97852C14.6484 2.97852 11.9629 0.244141 11.9629-4.93164ZM20.6543-42.1387C21.0449-42.1387 21.3379-42.334 21.5332-42.7734L23.877-48.877L32.5195-48.877L34.9121-42.7734C35.0586-42.334 35.4004-42.1387 35.791-42.1387C36.4258-42.1387 36.7676-42.4805 36.7676-43.0176C36.7676-43.1641 36.7188-43.4082 36.6699-43.5547L29.2969-62.1582C29.1504-62.6465 28.7598-62.8906 28.2227-62.8906C27.7344-62.8906 27.2949-62.6465 27.1484-62.1582L19.7754-43.5547C19.7266-43.4082 19.6777-43.1641 19.6777-43.0176C19.6777-42.4805 20.0195-42.1387 20.6543-42.1387ZM24.6094-50.7324L28.1738-60.1074L28.2715-60.1074L31.8359-50.7324ZM43.9941-57.0312L61.0352-57.0312C61.6699-57.0312 62.1582-57.5195 62.1582-58.1055C62.1582-58.6914 61.6699-59.1797 61.0352-59.1797L43.9941-59.1797C43.3594-59.1797 42.9199-58.6914 42.9199-58.1055C42.9199-57.5195 43.3594-57.0312 43.9941-57.0312ZM43.9941-43.5059L61.0352-43.5059C61.6699-43.5059 62.1582-43.9453 62.1582-44.5312C62.1582-45.1172 61.6699-45.6055 61.0352-45.6055L43.9941-45.6055C43.3594-45.6055 42.9199-45.1172 42.9199-44.5312C42.9199-43.9453 43.3594-43.5059 43.9941-43.5059ZM18.2617-7.95898L19.3848-7.95898L26.2695-14.1602C27.2461-15.0391 28.1738-15.4785 29.0039-15.4785C29.9316-15.4785 30.957-14.9902 31.8359-14.1602L35.3516-10.9375L44.6777-18.9453C45.8496-19.9219 47.0215-20.4102 48.0469-20.4102C49.1699-20.4102 50.4883-19.9707 51.4648-18.8965L61.4258-7.95898L62.5977-7.95898L62.5977-30.2734C62.5977-33.6426 60.9375-35.2539 57.5684-35.2539L23.291-35.2539C19.9219-35.2539 18.2617-33.6426 18.2617-30.2734ZM32.1777-19.0918C29.4434-19.0918 27.2461-21.3379 27.2461-24.0234C27.2461-26.7578 29.4434-28.9551 32.1777-28.9551C34.8633-28.9551 37.1094-26.7578 37.1094-24.0234C37.1094-21.3379 34.8633-19.0918 32.1777-19.0918Z"/>
  </g>
 </g>
</svg>
