<svg xmlns="http://www.w3.org/2000/svg" viewBox="0 0 48 60" x="0px" y="0px"><title>chinese-eat-food-plate-soup-sticks</title><path d="M6,22v2.65A13.37,13.37,0,0,0,19.35,38h9.3A13.37,13.37,0,0,0,42,24.65V22Zm34,2.65A11.36,11.36,0,0,1,28.65,36h-9.3A11.36,11.36,0,0,1,8,24.65V24H40ZM16,40H32v2H16Zm1.61-19.29L6.29,9.39,7.71,8,19,19.29Zm6.68,0-14-14,1.42-1.42,14,14Z"/><text x="0" y="63" fill="#000000" font-size="5px" font-weight="bold" font-family="'Helvetica Neue', Helvetica, Arial-Unicode, Arial, Sans-serif">Created by Paolo Valzania</text><text x="0" y="68" fill="#000000" font-size="5px" font-weight="bold" font-family="'Helvetica Neue', Helvetica, Arial-Unicode, Arial, Sans-serif">from the Noun Project</text></svg>