<?xml version="1.0" encoding="UTF-8"?>
<svg width="1900px" height="1900px" viewBox="0 0 1900 1900" version="1.1" xmlns="http://www.w3.org/2000/svg" xmlns:xlink="http://www.w3.org/1999/xlink">
    <!-- Generator: Sketch 52.2 (67145) - http://www.bohemiancoding.com/sketch -->
    <title>vector-Artboard</title>
    <desc>Created with Sketch.</desc>
    <g id="Artboard" stroke="none" stroke-width="1" fill="none" fill-rule="evenodd">
        <path d="M200,882 L200,989.9875 C200.458922,1290.2512 449.2319,1533.55117 756.25,1534 L1143.75,1534 C1450.7681,1533.55117 1699.54108,1290.2512 1700,989.9875 L1700,882 L200,882 Z M1624,999.270833 C1623.77033,1252.5276 1412.22574,1457.77716 1151.20156,1458 L763.798437,1458 C502.774264,1457.77716 291.229674,1252.5276 291,999.270833 L291,973 L1624,973 L1624,999.270833 Z M624,1624 L1291,1624 L1291,1700 L624,1700 L624,1624 Z M687.037766,821 L215,362.321794 L274.213218,306 L745,763.462628 L687.037766,821 Z M959.431907,836 L382,258.568093 L440.568093,200 L1018,777.431907 L959.431907,836 Z" id="noodle-icon" fill="#000000" fill-rule="nonzero"></path>
    </g>
</svg>